<?xml version="1.0" encoding="utf-8"?>
<!-- Generator: Adobe Illustrator 24.1.2, SVG Export Plug-In . SVG Version: 6.00 Build 0)  -->
<svg version="1.1" id="Layer_1" xmlns="http://www.w3.org/2000/svg" xmlns:xlink="http://www.w3.org/1999/xlink" x="0px" y="0px"
	 viewBox="0 0 34.1 32.73" style="enable-background:new 0 0 34.1 32.73;" xml:space="preserve">
<style type="text/css">
	.st0{fill:#7F7F7F;}
</style>
<polygon class="st0" points="-23.61,-66.71 -37.78,-58.53 -51.96,-50.35 -51.96,-66.71 -51.96,-83.08 -37.78,-74.89 "/>
<g>
	<rect x="-93.25" y="-83.08" class="st0" width="8.16" height="32.73"/>
	<rect x="-80.98" y="-83.08" class="st0" width="8.16" height="32.73"/>
</g>
<g>
	<polygon class="st0" points="-7.33,-66.71 5.89,-74.34 19.1,-81.97 19.1,-66.71 19.1,-51.45 5.89,-59.08 	"/>
	
		<rect x="-9.22" y="-83.08" transform="matrix(-1 -1.224647e-16 1.224647e-16 -1 -11.696 -133.4222)" class="st0" width="6.74" height="32.73"/>
</g>
<g>
	<polygon class="st0" points="6.41,16.37 17.87,9.75 29.33,3.13 29.33,16.37 29.33,29.6 17.87,22.98 	"/>
	
		<rect x="4.77" y="2.18" transform="matrix(-1 -1.224647e-16 1.224647e-16 -1 15.3913 32.7317)" class="st0" width="5.84" height="28.37"/>
</g>
<g>
	<path class="st0" d="M133.89-12.26c1.62,1.23,3.23,2.47,4.85,3.7c0.97,0.74,1.95,1.47,2.92,2.21c0.33,0.25,0.31,0.54-0.03,0.81
		c-1.12,0.85-2.23,1.69-3.35,2.54c-1.38,1.05-2.75,2.1-4.14,3.13c-0.14,0.11-0.37,0.19-0.54,0.16c-0.24-0.05-0.24-0.31-0.24-0.53
		c0.01-1.03,0-2.06,0-3.12c-3.55,0-7.08,0-10.64,0c0,0.86,0,1.7,0,2.55c0,2.33,0,4.67,0,7c0,0.31-0.13,0.52-0.36,0.7
		c-1.23,0.93-2.45,1.87-3.69,2.78c-0.16,0.12-0.41,0.2-0.6,0.17c-0.14-0.02-0.26-0.24-0.35-0.39c-0.05-0.08-0.02-0.21-0.02-0.31
		c0-4.2,0.01-8.39,0-12.59c0-1.49,0.48-2.77,1.56-3.8c0.95-0.9,2.09-1.31,3.39-1.31c3.42,0,6.84,0,10.26,0c0.13,0,0.25,0,0.41,0
		c0.01-0.13,0.02-0.24,0.02-0.35c0-0.92,0-1.83,0-2.75c0-0.26,0.05-0.48,0.3-0.61C133.72-12.26,133.8-12.26,133.89-12.26z"/>
	<path class="st0" d="M125.71,20.47c-1.53-1.17-3.07-2.34-4.6-3.51c-1.06-0.81-2.11-1.61-3.17-2.41c-0.32-0.25-0.32-0.53,0.02-0.78
		c2.2-1.67,4.4-3.34,6.6-5c0.33-0.25,0.65-0.52,0.99-0.74c0.12-0.08,0.35-0.15,0.45-0.09c0.13,0.07,0.24,0.28,0.24,0.43
		c0.02,0.94,0.01,1.87,0.01,2.81c0,0.13,0,0.25,0,0.4c3.55,0,7.07,0,10.62,0c0-0.12,0-0.23,0-0.35c0-2.99,0.01-5.99-0.01-8.98
		c0-0.45,0.13-0.75,0.5-1.02c1.21-0.89,2.39-1.8,3.58-2.71c0.2-0.15,0.41-0.28,0.67-0.14c0.26,0.14,0.28,0.37,0.28,0.63
		c0,4.24-0.02,8.48,0,12.72c0.01,2.44-1.6,4.37-3.67,4.88c-0.44,0.11-0.9,0.16-1.36,0.16c-3.4,0.01-6.8,0.01-10.19,0.01
		c-0.13,0-0.25,0-0.41,0c-0.01,0.13-0.02,0.25-0.02,0.36c0,0.92-0.01,1.83,0,2.75c0,0.27-0.06,0.47-0.3,0.61
		C125.88,20.47,125.79,20.47,125.71,20.47z"/>
</g>
<g>
	<path class="st0" d="M125.74-37.92l0.32,0.51c0.03,0.04,0.06,0.08,0.13,0.18l0.36,0.35l1.71-2.68c0.54-0.87,1.29-1.45,2.21-1.71
		c0.32-0.09,0.64-0.15,0.93-0.16c0.45-0.02,0.9-0.01,1.37-0.01l0.6,0c0,0.68,0,1.36,0,2.05v0.72c0,0.46,0.19,0.8,0.61,1
		c0.43,0.2,0.82,0.12,1.18-0.17c0.25-0.2,0.49-0.41,0.73-0.61c1.86-1.55,3.72-3.1,5.58-4.65c0.56-0.47,0.57-1.22,0.01-1.69
		c-1.19-1-2.38-1.99-3.58-2.98c-0.91-0.75-1.81-1.51-2.71-2.27c-0.37-0.31-0.77-0.4-1.21-0.2c-0.42,0.2-0.61,0.56-0.61,1.02v2.76
		l-0.62,0c-0.44,0-0.88,0-1.31,0c-1.58,0.03-3.07,0.45-4.42,1.25c-1.37,0.81-2.45,1.95-3.31,3.47c-0.12,0.2-0.06,0.47,0.04,0.63
		C124.41-40.04,125.08-38.98,125.74-37.92z"/>
	<path class="st0" d="M141.44-27.78c-2.09-1.74-4.18-3.48-6.26-5.22c-0.36-0.3-0.77-0.39-1.2-0.18c-0.42,0.2-0.6,0.56-0.6,1.01v2.35
		v0.39l-0.14,0.02l-0.53,0c-0.41,0-0.82,0.01-1.22-0.01c-1.39-0.06-2.47-0.69-3.22-1.87c-0.77-1.23-1.54-2.46-2.31-3.69l-2-3.21
		c-0.8-1.27-1.59-2.55-2.39-3.83c-1.82-2.94-4.49-4.44-7.92-4.45c-1.26,0-2.52,0-3.79,0l-2.05,0v5.01h5.9c0,0,0,0,0,0
		c1.54,0,2.68,0.63,3.5,1.94l2.18,3.49c1.53,2.44,3.05,4.89,4.59,7.33c1.78,2.82,4.38,4.27,7.75,4.3c0.21,0,0.42,0,0.64,0
		c0.14,0,0.28,0,0.42,0l0.6,0h0v0.17c0,0.87,0,1.75,0,2.62c0,0.45,0.2,0.79,0.61,0.99c0.41,0.2,0.81,0.13,1.17-0.16
		c2.1-1.75,4.2-3.5,6.3-5.25C142.06-26.54,142.05-27.26,141.44-27.78z"/>
	<path class="st0" d="M121.67-29.74c-0.58-0.94-1.17-1.88-1.76-2.82l-0.52-0.82L118.91-34l-0.69,1.04
		c-0.33,0.53-0.66,1.06-0.99,1.59c-0.82,1.33-1.98,1.97-3.53,1.97c0,0-0.01,0-0.01,0l-5.88,0v4.98l1.96,0.03c0.59,0,1.18,0,1.77,0
		c0.85,0,1.71,0,2.56-0.02c1.78-0.03,3.45-0.59,4.97-1.68c1.04-0.75,1.91-1.74,2.65-3.03C121.82-29.3,121.78-29.57,121.67-29.74z"/>
</g>
</svg>
