<?xml version="1.0" encoding="utf-8"?>
<!-- Generator: Adobe Illustrator 24.1.2, SVG Export Plug-In . SVG Version: 6.00 Build 0)  -->
<svg version="1.1" id="Layer_1" xmlns="http://www.w3.org/2000/svg" xmlns:xlink="http://www.w3.org/1999/xlink" x="0px" y="0px"
	 viewBox="0 0 34.1 32.73" style="enable-background:new 0 0 34.1 32.73;" xml:space="preserve">
<style type="text/css">
	.st0{fill:#7F7F7F;}
</style>
<polygon class="st0" points="-23.61,-66.71 -37.78,-58.53 -51.96,-50.35 -51.96,-66.71 -51.96,-83.08 -37.78,-74.89 "/>
<g>
	<rect x="-93.25" y="-83.08" class="st0" width="8.16" height="32.73"/>
	<rect x="-80.98" y="-83.08" class="st0" width="8.16" height="32.73"/>
</g>
<g>
	<polygon class="st0" points="-7.33,-66.71 5.89,-74.34 19.1,-81.97 19.1,-66.71 19.1,-51.45 5.89,-59.08 	"/>
	
		<rect x="-9.22" y="-83.08" transform="matrix(-1 -1.224647e-16 1.224647e-16 -1 -11.696 -133.4222)" class="st0" width="6.74" height="32.73"/>
</g>
<g>
	<polygon class="st0" points="63.9,-66.71 50.68,-59.08 37.46,-51.45 37.46,-66.71 37.46,-81.97 50.68,-74.34 	"/>
	<rect x="59.05" y="-83.08" class="st0" width="6.74" height="32.73"/>
</g>
<g>
	<path class="st0" d="M111.42-56.06c-0.57,0-1.11,0-1.65,0c-3.22-0.03-5.72-1.4-7.43-4.13c-2.27-3.6-4.51-7.21-6.76-10.81
		c-0.88-1.41-2.15-2.11-3.82-2.11c-1.88,0-3.76,0-5.64,0c-0.08,0-0.16,0-0.26,0c0-1.43,0-2.83,0-4.26c0.09,0,0.17,0,0.25,0
		c1.86,0,3.72,0,5.58,0c3.33,0.01,5.85,1.45,7.6,4.27c1.14,1.84,2.29,3.67,3.44,5.51c1.09,1.74,2.17,3.49,3.27,5.22
		c0.81,1.29,1.99,1.98,3.52,2.04c0.59,0.03,1.18,0.01,1.77,0.01c0.04,0,0.08-0.01,0.14-0.02c0-0.08,0-0.16,0-0.23
		c0-0.96,0-1.92,0-2.87c0-0.47,0.18-0.83,0.6-1.03c0.43-0.21,0.84-0.12,1.2,0.18c2.09,1.74,4.17,3.48,6.26,5.22
		c0.62,0.52,0.62,1.24,0.01,1.76c-2.1,1.75-4.2,3.5-6.3,5.25c-0.35,0.29-0.75,0.36-1.17,0.16c-0.41-0.19-0.61-0.54-0.61-0.99
		c0-0.97,0-1.94,0-2.91C111.42-55.88,111.42-55.95,111.42-56.06z"/>
	<path class="st0" d="M111.42-73.1c-0.68,0-1.34-0.02-1.99,0.01c-0.34,0.01-0.69,0.08-1.02,0.17c-1.05,0.3-1.85,0.95-2.43,1.87
		c-0.44,0.71-0.88,1.41-1.32,2.12c-0.04,0.06-0.08,0.11-0.13,0.19c-0.04-0.06-0.08-0.1-0.11-0.15c-0.77-1.23-1.54-2.46-2.3-3.69
		c-0.04-0.07-0.07-0.19-0.04-0.25c0.78-1.38,1.8-2.52,3.18-3.33c1.31-0.77,2.72-1.17,4.23-1.2c0.63-0.01,1.26,0,1.92,0
		c0-0.09,0-0.16,0-0.23c0-0.96,0-1.93,0-2.89c0-0.47,0.18-0.83,0.61-1.03c0.44-0.21,0.84-0.12,1.21,0.2
		c0.9,0.76,1.81,1.51,2.71,2.27c1.19,0.99,2.39,1.99,3.58,2.98c0.56,0.47,0.55,1.22-0.01,1.69c-1.86,1.55-3.72,3.1-5.58,4.65
		c-0.25,0.2-0.49,0.41-0.73,0.61c-0.36,0.29-0.76,0.38-1.18,0.17c-0.42-0.2-0.61-0.54-0.61-1c0-0.96,0-1.93,0-2.89
		C111.42-72.93,111.42-73,111.42-73.1z"/>
	<path class="st0" d="M85.86-60.32c0.09,0,0.18,0,0.26,0c1.87,0,3.75,0,5.62,0c1.69,0,2.97-0.71,3.86-2.15
		c0.42-0.68,0.84-1.35,1.27-2.03c0.04-0.06,0.08-0.11,0.13-0.19c0.15,0.24,0.29,0.46,0.43,0.68c0.66,1.06,1.32,2.12,1.98,3.18
		c0.04,0.07,0.06,0.19,0.03,0.25c-0.65,1.14-1.47,2.14-2.54,2.91c-1.42,1.02-3.01,1.58-4.75,1.61c-2.05,0.03-4.11,0.01-6.16,0.01
		c-0.03,0-0.07,0-0.12-0.01C85.86-57.48,85.86-58.89,85.86-60.32z"/>
</g>
<g>
	<path class="st0" d="M21.14,0c1.62,1.23,3.23,2.47,4.85,3.7c0.97,0.74,1.95,1.47,2.92,2.21c0.33,0.25,0.31,0.54-0.03,0.81
		c-1.12,0.85-2.23,1.69-3.35,2.54c-1.38,1.05-2.75,2.1-4.14,3.13c-0.14,0.11-0.37,0.19-0.54,0.16c-0.24-0.05-0.24-0.31-0.24-0.53
		c0.01-1.03,0-2.06,0-3.12c-3.55,0-7.08,0-10.64,0c0,0.86,0,1.7,0,2.55c0,2.33,0,4.67,0,7c0,0.31-0.13,0.52-0.36,0.7
		c-1.23,0.93-2.45,1.87-3.69,2.78c-0.16,0.12-0.41,0.2-0.6,0.17c-0.14-0.02-0.26-0.24-0.35-0.39c-0.05-0.08-0.02-0.21-0.02-0.31
		c0-4.2,0.01-8.39,0-12.59c0-1.49,0.48-2.77,1.56-3.8c0.95-0.9,2.09-1.31,3.39-1.31c3.42,0,6.84,0,10.26,0c0.13,0,0.25,0,0.41,0
		c0.01-0.13,0.02-0.24,0.02-0.35c0-0.92,0-1.83,0-2.75c0-0.26,0.05-0.48,0.3-0.61C20.97,0,21.06,0,21.14,0z"/>
	<path class="st0" d="M12.96,32.73c-1.53-1.17-3.07-2.34-4.6-3.51c-1.06-0.81-2.11-1.61-3.17-2.41c-0.32-0.25-0.32-0.53,0.02-0.78
		c2.2-1.67,4.4-3.34,6.6-5c0.33-0.25,0.65-0.52,0.99-0.74c0.12-0.08,0.35-0.15,0.45-0.09c0.13,0.07,0.24,0.28,0.24,0.43
		c0.02,0.94,0.01,1.87,0.01,2.81c0,0.13,0,0.25,0,0.4c3.55,0,7.07,0,10.62,0c0-0.12,0-0.23,0-0.35c0-2.99,0.01-5.99-0.01-8.98
		c0-0.45,0.13-0.75,0.5-1.02c1.21-0.89,2.39-1.8,3.58-2.71c0.2-0.15,0.41-0.28,0.67-0.14c0.26,0.14,0.28,0.37,0.28,0.63
		c0,4.24-0.02,8.48,0,12.72c0.01,2.44-1.6,4.37-3.67,4.88c-0.44,0.11-0.9,0.16-1.36,0.16c-3.4,0.01-6.8,0.01-10.19,0.01
		c-0.13,0-0.25,0-0.41,0c-0.01,0.13-0.02,0.25-0.02,0.36c0,0.92-0.01,1.83,0,2.75c0,0.27-0.06,0.47-0.3,0.61
		C13.13,32.73,13.04,32.73,12.96,32.73z"/>
</g>
</svg>
