<?xml version="1.0" encoding="utf-8"?>
<!-- Generator: Adobe Illustrator 24.1.2, SVG Export Plug-In . SVG Version: 6.00 Build 0)  -->
<svg version="1.1" id="Layer_1" xmlns="http://www.w3.org/2000/svg" xmlns:xlink="http://www.w3.org/1999/xlink" x="0px" y="0px"
	 viewBox="0 0 77.85 77.85" style="enable-background:new 0 0 77.85 77.85;" xml:space="preserve">
<style type="text/css">
	.st0{fill:#FFFFFF;}
</style>
<g>
	<g>
		<g>
			<path class="st0" d="M34.62,8.85c14.05,0,25.48,11.43,25.48,25.48S48.67,59.81,34.62,59.81S9.14,48.38,9.14,34.33
				S20.57,8.85,34.62,8.85 M34.62-0.14c-19.04,0-34.47,15.43-34.47,34.47s15.43,34.47,34.47,34.47s34.47-15.43,34.47-34.47
				S53.66-0.14,34.62-0.14L34.62-0.14z"/>
		</g>
	</g>
	<g>
		<path class="st0" d="M68.06,71.21c-1.15,0-2.3-0.44-3.18-1.32l-8.48-8.48c-1.76-1.76-1.76-4.6,0-6.36c1.76-1.76,4.6-1.76,6.36,0
			l8.48,8.48c1.76,1.76,1.76,4.6,0,6.36C70.36,70.77,69.21,71.21,68.06,71.21z"/>
	</g>
</g>
</svg>
