<?xml version="1.0" encoding="utf-8"?>
<!-- Generator: Adobe Illustrator 24.1.2, SVG Export Plug-In . SVG Version: 6.00 Build 0)  -->
<svg version="1.1" id="Layer_1" xmlns="http://www.w3.org/2000/svg" xmlns:xlink="http://www.w3.org/1999/xlink" x="0px" y="0px"
	 viewBox="0 0 445.51 145.3" style="enable-background:new 0 0 445.51 145.3;" xml:space="preserve">
<style type="text/css">
	.st0{fill:#3517BA;}
	.st1{fill:#504EFF;}
	.st2{fill:#DB44FF;}
	.st3{fill:#FFFFFF;}
	.st4{fill:#00CD3C;}
</style>
<g>
	<rect x="-0.14" y="-0.7" class="st0" width="445.65" height="146"/>
	<path class="st1" d="M0-0.57V0c11.57,2.06,43.01,11.59,78.58,55.52c4.79,5.92,9.28,11.6,13.51,17.04
		c15.28-4.64,48.41-20.46,72.78-73.14H0z"/>
	<path class="st2" d="M0,0v145.3h153.48c-18.11-11.2-37.45-43.51-74.9-89.78C43.01,11.59,11.57,2.06,0,0z"/>
	<path class="st1" d="M296.13,145.3h149.38v-146c-20.5,33.22-44.84,62.47-70.64,72.19C330.06,88.36,307,122.55,296.13,145.3z"/>
</g>
<g>
	<g>
		<path class="st3" d="M101.12,69.33h4.19v1.46H95.03v-1.46h4.19v-1.68h1.9V69.33z M104.53,74.63c0,0.88-0.4,1.56-1.21,2.04
			c-0.81,0.48-1.85,0.72-3.13,0.72c-1.26,0-2.31-0.24-3.13-0.72c-0.82-0.48-1.23-1.16-1.23-2.04V74.4c0-0.88,0.41-1.56,1.23-2.04
			c0.82-0.48,1.87-0.72,3.13-0.72c1.28,0,2.32,0.24,3.13,0.72c0.81,0.48,1.21,1.16,1.21,2.04V74.63z M97.68,74.6
			c0,0.41,0.24,0.74,0.71,0.98c0.47,0.24,1.07,0.36,1.79,0.36c0.72,0,1.32-0.12,1.79-0.36c0.47-0.24,0.71-0.57,0.71-0.98v-0.14
			c0-0.41-0.24-0.74-0.71-0.99c-0.47-0.25-1.07-0.37-1.79-0.37c-0.72,0-1.32,0.12-1.79,0.37c-0.47,0.25-0.71,0.58-0.71,0.99V74.6z
			 M109.07,84.63H97.78v-6.09h11.29V84.63z M107.17,80.07h-7.49v2.98h7.49V80.07z M109.07,71.88h2.73v1.65h-2.73v3.96h-1.9v-9.64
			h1.9V71.88z"/>
		<path class="st3" d="M113.62,70.82v-1.65h3.66v1.48c0,1.9-0.21,3.81-0.63,5.73c-0.42,1.92-1.04,3.9-1.88,5.95l-1.61-0.63
			c0.8-1.94,1.4-3.82,1.8-5.64c0.4-1.82,0.61-3.5,0.61-5.04v-0.2H113.62z M123.25,74.5v-6.4h1.71v16.18h-1.71v-8.14h-2.14
			c-0.46,2.41-1.14,4.7-2.07,6.87l-1.61-0.63c0.8-1.89,1.41-3.85,1.84-5.88c0.43-2.03,0.65-3.86,0.65-5.5v-0.2h-1.97v-1.65h3.68
			v1.48c0,1.22-0.09,2.5-0.27,3.85H123.25z M126.74,84.63V67.85h1.75v16.78H126.74z"/>
		<path class="st3" d="M141.73,69.21h4.19v1.45h-10.3v-1.45h4.19v-1.56h1.92V69.21z M145.14,74.13c0,0.81-0.4,1.43-1.21,1.87
			c-0.81,0.44-1.85,0.66-3.13,0.66s-2.32-0.22-3.14-0.66c-0.82-0.44-1.22-1.06-1.22-1.87v-0.2c0-0.82,0.4-1.45,1.21-1.88
			c0.81-0.43,1.86-0.65,3.15-0.65c1.28,0,2.32,0.22,3.13,0.65c0.81,0.43,1.21,1.06,1.21,1.88V74.13z M138.29,74.09
			c0,0.35,0.24,0.63,0.71,0.83c0.47,0.2,1.07,0.31,1.79,0.31c0.72,0,1.32-0.1,1.79-0.31c0.47-0.2,0.71-0.48,0.71-0.83v-0.13
			c0-0.34-0.24-0.61-0.71-0.82s-1.07-0.32-1.79-0.32c-0.72,0-1.32,0.11-1.79,0.32s-0.71,0.49-0.71,0.82V74.09z M149.68,81.81h-9.39
			v1.45h10.02v1.46h-11.91v-4.3h9.39v-1.37h-9.48v-1.43h11.38V81.81z M149.68,67.85v3.67h2.73v1.65h-2.73v3.4h-1.9v-8.72H149.68z"/>
		<path class="st3" d="M153.56,78.19h16.54v1.63h-7.32v4.99h-1.88v-4.99h-7.34V78.19z M161.42,72.79c-1.23,1.35-3.24,2.53-6.03,3.53
			l-0.76-1.57c2.19-0.81,3.79-1.68,4.82-2.6c1.02-0.93,1.54-1.92,1.54-2.98v-1.03h1.9v1.03c0,0.76-0.16,1.48-0.47,2.15l6.64,3.49
			l-0.91,1.52L161.42,72.79z"/>
		<path class="st3" d="M180.76,75.57v1.48h7.32v1.46h-16.54v-1.46h7.34v-1.48h-5.14v-4.39h10.24V69.7h-10.32v-1.48h12.22v4.41
			h-10.24v1.48h10.6v1.46H180.76z M184.18,81.48h-10.6v-1.55h12.5v4.88h-1.9V81.48z"/>
		<path class="st3" d="M207.36,67.85h1.9v16.78h-1.9v-8.48h-4.7c-1.35,2.52-3.57,4.72-6.66,6.6l-1.12-1.43
			c1.3-0.78,2.45-1.65,3.44-2.59c0.99-0.94,1.79-1.92,2.4-2.95c-1.86,0.16-3.64,0.25-5.35,0.27h-0.38l-0.1-1.65h0.34
			c0.92-0.01,1.99-0.05,3.21-0.1c1.21-0.05,2.24-0.12,3.09-0.21c0.39-1.06,0.59-2.09,0.59-3.09v-0.2h-6.87v-1.65h8.78v1.48
			c0,1.34-0.22,2.62-0.66,3.85h3.98V67.85z"/>
		<path class="st3" d="M218.62,71.54c0,1.29-0.16,2.5-0.47,3.62l4.99,5.84l-1.44,1.17l-4.27-5.03c-0.77,1.71-2.01,3.45-3.72,5.21
			l-1.37-1.19c1.5-1.54,2.62-3.07,3.35-4.57c0.73-1.51,1.09-3.19,1.09-5.04v-0.72h-3.74v-1.65h9.39v1.65h-3.81V71.54z M225.34,71.72
			v-3.87h1.9v16.78h-1.9v-7.45h-3.45v-1.61h3.45v-2.24h-3.45v-1.61H225.34z"/>
		<path class="st3" d="M230.78,70.82v-1.65h8.33v1.48c0,2.34-0.65,4.52-1.96,6.55c-1.31,2.03-3.17,3.84-5.59,5.42l-1.18-1.43
			c2.19-1.36,3.87-2.95,5.06-4.76c1.18-1.81,1.77-3.62,1.77-5.42v-0.2H230.78z M244.23,74.16h2.73v1.65h-2.73v8.82h-1.9V67.85h1.9
			V74.16z"/>
		<path class="st3" d="M264.66,78.36h-16.54v-1.66h16.54V78.36z M252.22,73.22h10.34v1.66h-12.23v-6.67h1.9V73.22z M262.91,84.63
			h-12.59v-4.86h1.9v3.18h10.7V84.63z"/>
		<path class="st3" d="M287.29,77.11h-16.54v-1.55h16.54V77.11z M285.54,84.63h-12.77v-5.84h12.5v1.57h-10.6v2.69h10.87V84.63z
			 M272.95,68.21h11.95v1.5h-10.05v2.75h10.24V74h-12.14V68.21z"/>
		<path class="st3" d="M305.27,78.36h-16.54v-1.66h16.54V78.36z M292.83,73.22h10.34v1.66h-12.23v-6.67h1.9V73.22z M303.53,84.63
			h-12.59v-4.86h1.9v3.18h10.7V84.63z"/>
		<path class="st3" d="M316.44,71.7c0,1.25-0.12,2.43-0.36,3.53l3.96,5.91l-1.54,1.03l-3.11-4.65c-0.63,1.63-1.56,3.24-2.79,4.83
			l-1.48-1.1c1.2-1.52,2.09-3.03,2.67-4.55c0.58-1.51,0.86-3.18,0.86-5v-0.89h-2.88v-1.65h7.66v1.65h-3V71.7z M324.86,74.16v-6.31
			h1.84v16.78h-1.84v-8.82h-2.24v8.48h-1.8V68.1h1.8v6.06H324.86z"/>
		<path class="st3" d="M338.92,81.92h-8.73V69.08h8.73V81.92z M332.09,70.74v9.51h4.95v-9.51H332.09z M344.42,84.63h-1.88V67.85
			h1.88V84.63z"/>
		<path class="st3" d="M348.12,83.56c-0.25-0.24-0.38-0.53-0.38-0.87c0-0.34,0.13-0.63,0.39-0.88c0.26-0.25,0.57-0.37,0.92-0.37
			c0.35,0,0.66,0.12,0.91,0.36c0.25,0.24,0.38,0.54,0.38,0.89c0,0.35-0.12,0.64-0.37,0.88c-0.25,0.23-0.55,0.35-0.92,0.35
			C348.68,83.93,348.37,83.8,348.12,83.56z"/>
	</g>
	<g>
		<path class="st3" d="M128.65,101.37h-16.54v-1.55h16.54V101.37z M119,98.33c-1.53,0-2.74-0.26-3.62-0.77
			c-0.89-0.51-1.33-1.27-1.33-2.27c0-0.99,0.44-1.74,1.33-2.24c0.88-0.51,2.09-0.76,3.62-0.76h2.79c1.53,0,2.73,0.25,3.61,0.76
			c0.88,0.51,1.32,1.25,1.32,2.24c0,1-0.44,1.76-1.32,2.27c-0.88,0.51-2.08,0.77-3.61,0.77H119z M126.64,108.89h-12.48v-5.84h12.48
			V108.89z M121.44,96.85c1.09,0,1.93-0.13,2.51-0.4c0.59-0.26,0.88-0.64,0.88-1.14c0-0.49-0.29-0.87-0.87-1.13
			c-0.58-0.26-1.42-0.39-2.52-0.39h-2.11c-1.1,0-1.94,0.13-2.52,0.39c-0.58,0.26-0.87,0.64-0.87,1.13c0,0.49,0.29,0.87,0.88,1.14
			c0.59,0.27,1.43,0.4,2.51,0.4H121.44z M116.04,104.57v2.8h8.71v-2.8H116.04z"/>
		<path class="st3" d="M139.46,96.83c0,1.31-0.43,2.32-1.28,3.01c-0.85,0.69-1.96,1.04-3.31,1.04c-1.37,0-2.48-0.35-3.35-1.04
			c-0.87-0.69-1.3-1.7-1.3-3.01v-0.29c0-1.31,0.43-2.32,1.3-3.02c0.87-0.7,1.98-1.05,3.35-1.05c1.35,0,2.46,0.35,3.31,1.05
			c0.85,0.7,1.28,1.71,1.28,3.02V96.83z M132.12,96.79c0,0.81,0.25,1.43,0.76,1.85c0.51,0.43,1.17,0.64,1.99,0.64
			c0.8,0,1.45-0.21,1.95-0.64c0.51-0.43,0.76-1.05,0.76-1.85v-0.24c0-0.81-0.25-1.43-0.76-1.85c-0.51-0.43-1.16-0.64-1.95-0.64
			c-0.82,0-1.49,0.21-1.99,0.64c-0.51,0.43-0.76,1.05-0.76,1.85V96.79z M142.29,104.22h-9.56v-1.65h11.46v6.49h-1.9V104.22z
			 M144.18,95.78h2.73v1.66h-2.73v4.09h-1.9v-9.42h1.9V95.78z"/>
		<path class="st3" d="M161.69,93.92c0,1.75-0.69,3.23-2.07,4.44c-1.38,1.21-3.36,2.2-5.94,2.96l-0.72-1.61
			c2.05-0.59,3.67-1.33,4.86-2.22c1.19-0.89,1.83-1.84,1.93-2.84h-6.39v-1.65h8.33V93.92z M166.81,108.89h-11.27v-6.65h11.27V108.89
			z M164.92,103.82h-7.49v3.44h7.49V103.82z M166.81,95.62h2.73v1.65h-2.73v3.91h-1.9v-9.06h1.9V95.62z"/>
		<path class="st3" d="M175.44,97.8c-0.85,1.24-2.21,2.38-4.1,3.42l-1.01-1.45c1.54-0.87,2.68-1.79,3.41-2.77s1.1-2.06,1.1-3.25
			v-1.1h1.84v1.1c0,0.89-0.15,1.74-0.44,2.53l4.89,3.16l-1.02,1.41L175.44,97.8z M181.02,102.14c0.83,0,1.57,0.15,2.2,0.44
			c0.63,0.3,1.12,0.71,1.46,1.23c0.34,0.52,0.51,1.12,0.51,1.78c0,0.68-0.17,1.27-0.51,1.8c-0.34,0.52-0.83,0.93-1.46,1.23
			c-0.63,0.3-1.37,0.44-2.2,0.44h-3.72c-0.82,0-1.55-0.15-2.18-0.44c-0.63-0.3-1.12-0.7-1.46-1.23c-0.34-0.52-0.51-1.12-0.51-1.8
			c0-0.66,0.17-1.26,0.51-1.78c0.34-0.52,0.83-0.93,1.46-1.23c0.63-0.3,1.36-0.44,2.18-0.44H181.02z M180.72,107.44
			c0.83,0,1.47-0.17,1.92-0.51c0.44-0.34,0.66-0.78,0.66-1.34c0-0.55-0.22-1-0.66-1.34c-0.44-0.34-1.08-0.51-1.92-0.51h-3.09
			c-0.83,0-1.48,0.17-1.92,0.51c-0.45,0.34-0.67,0.78-0.67,1.34c0,0.55,0.22,1,0.67,1.34c0.45,0.34,1.09,0.51,1.92,0.51H180.72z
			 M184.8,92.11v3.51h2.73v1.65h-2.73v4h-1.9v-9.15H184.8z"/>
		<path class="st3" d="M193.67,104.58c2.01-0.08,3.98-0.24,5.92-0.45l0.21,1.59c-1.28,0.18-2.69,0.32-4.24,0.42
			c-1.55,0.1-2.97,0.14-4.26,0.14h-2.79l-0.09-1.65h3.03h0.34v-6h1.88V104.58z M196.48,95.07h-6.92v-1.65h8.82v1.3
			c0,2.3-0.28,4.87-0.83,7.7l-1.86-0.27c0.24-1.24,0.43-2.49,0.58-3.74c0.15-1.25,0.22-2.3,0.22-3.13V95.07z M202.95,98.58h2.56
			v1.65h-2.56v8.66h-1.9V92.11h1.9V98.58z"/>
		<path class="st3" d="M211.31,102.45h16.54v1.63h-7.32v4.99h-1.88v-4.99h-7.34V102.45z M219.17,97.04
			c-1.23,1.35-3.24,2.53-6.03,3.53L212.37,99c2.19-0.81,3.79-1.68,4.82-2.6c1.02-0.93,1.54-1.92,1.54-2.98v-1.03h1.9v1.03
			c0,0.76-0.16,1.48-0.47,2.15l6.64,3.49l-0.91,1.52L219.17,97.04z"/>
		<path class="st3" d="M233.09,104.51c0.96,0,2.03-0.05,3.2-0.14c1.17-0.09,2.3-0.22,3.4-0.39l0.23,1.61
			c-2.42,0.37-4.81,0.56-7.17,0.56h-3.03V93.34h8.55V95h-6.64v9.51H233.09z M243.39,98.42h2.73v1.65h-2.73v8.82h-1.9V92.11h1.9
			V98.42z"/>
		<path class="st3" d="M263.82,101.28h-16.54V99.9h16.54V101.28z M262.26,108.98H249.3v-4.01h10.6v-1.19h-10.7v-1.37h12.59v3.94
			h-10.6v1.23h11.06V108.98z M261.98,98.82h-12.5v-3.87h10.24v-1.19H249.4v-1.37h12.22v3.91h-10.24v1.18h10.6V98.82z"/>
		<path class="st3" d="M279.12,98.35v1.55h7.32v1.55H269.9V99.9h7.34v-1.55h-5.14v-5.88h11.95v1.5H274v2.84h10.24v1.54H279.12z
			 M280.19,102.97c0.92,0,1.72,0.13,2.38,0.39s1.17,0.62,1.52,1.08c0.35,0.46,0.52,0.98,0.52,1.57c0,0.9-0.39,1.64-1.17,2.21
			c-0.78,0.57-1.86,0.85-3.25,0.85h-4.02c-1.39,0-2.48-0.28-3.25-0.85c-0.78-0.57-1.17-1.3-1.17-2.21c0-0.59,0.17-1.11,0.52-1.57
			c0.35-0.46,0.85-0.82,1.52-1.08c0.66-0.26,1.46-0.39,2.38-0.39H280.19z M279.82,107.5c0.97,0,1.7-0.13,2.18-0.4
			c0.48-0.27,0.72-0.63,0.72-1.1c0-0.46-0.24-0.82-0.72-1.08c-0.48-0.26-1.21-0.39-2.18-0.39h-3.28c-0.97,0-1.7,0.13-2.18,0.39
			s-0.72,0.62-0.72,1.08c0,0.47,0.24,0.84,0.72,1.1s1.21,0.4,2.18,0.4H279.82z"/>
		<path class="st3" d="M294.37,95.27c0,1.43-0.18,2.78-0.53,4.05l5.22,5.95l-1.42,1.16l-4.5-5.17c-0.85,1.87-2.16,3.65-3.95,5.35
			l-1.33-1.21c1.61-1.54,2.79-3.12,3.54-4.73c0.75-1.61,1.13-3.41,1.13-5.4v-2.19h1.84V95.27z M301.07,108.89V92.11h1.9v16.78
			H301.07z"/>
		<path class="st3" d="M315.56,98.58v-6.22h1.8v16.18h-1.8v-8.32h-1.99v0.85c0,1.92-0.34,3.33-1.01,4.25
			c-0.67,0.92-1.56,1.37-2.67,1.37c-1.13,0-2.03-0.46-2.7-1.37c-0.68-0.92-1.01-2.33-1.01-4.25v-2.55c0-1.92,0.34-3.33,1.01-4.25
			c0.68-0.92,1.58-1.37,2.7-1.37c1.11,0,2,0.46,2.67,1.37c0.67,0.92,1.01,2.33,1.01,4.25v0.05H315.56z M311.77,98.55
			c0-1.4-0.17-2.41-0.5-3.05c-0.33-0.63-0.8-0.95-1.39-0.95c-0.59,0-1.06,0.32-1.39,0.95c-0.33,0.63-0.5,1.65-0.5,3.05v2.51
			c0,1.39,0.17,2.4,0.51,3.04c0.34,0.64,0.8,0.96,1.38,0.96c0.58,0,1.04-0.32,1.38-0.96c0.34-0.64,0.51-1.65,0.51-3.04V98.55z
			 M319.37,108.89V92.11h1.86v16.78H319.37z"/>
		<path class="st3" d="M323.56,95.92c0.37-1.02,0.96-1.84,1.79-2.46c0.83-0.61,1.87-0.92,3.12-0.92c0.83,0,1.62,0.16,2.35,0.49
			c0.73,0.33,1.32,0.79,1.76,1.4c0.44,0.61,0.66,1.32,0.66,2.12c0,0.98-0.26,1.78-0.77,2.42c-0.51,0.64-1.26,1.21-2.25,1.7
			c-0.57,0.3-0.96,0.58-1.17,0.83s-0.32,0.58-0.33,0.98v0.89h-1.8l-0.02-1.03c0-0.74,0.16-1.31,0.47-1.74
			c0.32-0.42,0.89-0.84,1.73-1.25c0.78-0.4,1.35-0.81,1.7-1.22c0.35-0.42,0.52-0.94,0.52-1.58c0-0.7-0.27-1.27-0.81-1.7
			c-0.54-0.43-1.22-0.65-2.06-0.65c-0.83,0-1.5,0.2-1.98,0.59c-0.49,0.39-0.88,0.96-1.19,1.71L323.56,95.92z M326.94,107.83
			c-0.25-0.24-0.38-0.53-0.38-0.88c0-0.35,0.13-0.64,0.38-0.89c0.25-0.24,0.56-0.36,0.91-0.36c0.37,0,0.68,0.12,0.93,0.37
			c0.25,0.25,0.38,0.54,0.38,0.88c0,0.34-0.13,0.63-0.38,0.87c-0.25,0.24-0.56,0.36-0.93,0.36
			C327.5,108.18,327.19,108.06,326.94,107.83z"/>
	</g>
	<g>
		<g>
			<path class="st3" d="M118.56,46.65c0.6-2.64,1.59-6.72,2.33-9.12h-0.11c-1.59,3.85-3.43,8.04-6.04,14.25h-6.32
				c0.28-6.13,0.43-10.33,0.54-14.36h-0.09c-0.4,2.21-0.91,6.02-1.67,9.25L106,51.79h-7.37l4.23-18.93h11.8
				c-0.09,2.07-0.34,6.24-0.57,10.19h0.06c1.28-3.47,3.15-7.96,4.08-10.19h11.63l-4.23,18.93h-8.2L118.56,46.65z"/>
			<path class="st3" d="M141.7,32.86l-2.61,11.48c-0.54,2.31,0.71,2.8,1.7,2.8c1.93,0,2.5-1.21,2.84-2.8l2.61-11.48h8.31
				l-2.58,11.38c-1.16,5.27-3.57,8.04-11.94,8.04c-7.17,0-10.44-2.64-9.16-8.2l2.52-11.21H141.7z"/>
			<path class="st3" d="M161.72,45.98c0.06,0.81,0.62,1.75,2.5,1.75c1.02,0,1.81-0.3,1.81-1.13c0-0.65-0.17-1.18-3.09-1.86
				c-5.53-1.29-7-3.15-7-5.75c0-4.25,4.14-6.62,9.76-6.62c6.55,0,9.9,2.29,10.04,6.05h-7.51c-0.09-0.81-0.48-1.56-2.01-1.56
				c-0.82,0-1.5,0.43-1.5,1.13c0,0.73,0.77,1.13,2.72,1.56c5.73,1.29,7.63,3.15,7.63,6.05c0,4.33-4.42,6.67-10.8,6.67
				c-6.49,0-9.87-2.23-10.32-6.29H161.72z"/>
			<path class="st3" d="M188.85,32.86l-4.23,18.93h-8.34l4.23-18.93H188.85z"/>
			<path class="st3" d="M211.99,44.55c-1.3,4.76-4.99,7.72-12.25,7.72c-7.51,0-10.41-3.79-10.41-8.36c0-4.76,2.84-11.54,13.04-11.54
				c7.32,0,10.38,3.23,10.41,7.64h-8.11c0.14-1.83-0.4-3.07-2.21-3.07c-3.37,0-4.31,5.16-4.31,7.31c0,2.12,0.82,3.2,2.41,3.2
				c1.47,0,2.69-0.81,3.52-2.9H211.99z"/>
			<path class="st3" d="M222.71,51.79l-0.77-18.93h8.28c-0.37,3.93-0.54,8.36-0.88,12.02h0.11c1.76-4.2,3.15-8.07,4.82-12.02h7
				c-0.09,3.93-0.09,7.31-0.28,11.89h0.11c1.62-4.84,3.15-8.9,4.25-11.89h8.05l-9.53,18.93h-8.45c0-3.66,0.2-6.13,0.26-10.81h-0.11
				c-1.5,3.55-2.98,7.18-4.48,10.81H222.71z"/>
			<path class="st3" d="M257.62,48.94l-1.47,2.85h-8.54l10.83-18.93h11l2.95,18.93h-8.25l-0.26-2.85H257.62z M263.4,43.99
				c-0.14-1.51-0.31-4.38-0.43-6.16h-0.2c-0.65,1.72-1.84,4.38-2.67,6.16H263.4z"/>
			<path class="st3" d="M276.56,51.79l-2.81-18.93h8.28l0.54,7.99c0.17,2.39,0.23,3.93,0.2,5.43h0.06c0.6-1.45,1.28-2.74,2.55-5.41
				l3.97-8.01h9.05l-11.43,18.93H276.56z"/>
			<path class="st3" d="M314.81,44.77h-9.47l-0.45,2.04h10.92l-2.04,4.98H295.7l4.23-18.93h18.04l-1.11,4.98h-9.95l-0.43,1.96h9.47
				L314.81,44.77z"/>
		</g>
		<g>
			<path class="st4" d="M326.15,28.47h1.04l-0.81,3.69c0.4-0.56,1-1.06,2.05-1.06c1.2,0,1.94,0.83,1.94,2.19
				c0,1.67-0.87,4.33-3.32,4.33c-1.02,0-1.5-0.46-1.66-1.03c-0.05,0.22-0.17,0.7-0.24,0.92h-1.02c0.07-0.3,0.23-1,0.41-1.77
				L326.15,28.47z M329.28,33.46c0-1.03-0.48-1.5-1.24-1.5c-1.25,0-1.94,1.18-2.2,2.35c-0.27,1.22-0.18,2.47,1.19,2.47
				C328.61,36.79,329.28,34.7,329.28,33.46z"/>
			<path class="st4" d="M332.38,34.56c-0.05,0.2-0.08,0.45-0.08,0.7c0,0.9,0.37,1.55,1.34,1.55c1.07,0,1.42-0.7,1.66-1.11h1.05
				c-0.33,0.81-1.03,1.93-2.82,1.93c-1.63,0-2.28-1.02-2.28-2.39c0-1.71,0.99-4.13,3.36-4.13c1.55,0,2.2,0.99,2.2,2.18
				c0,0.38-0.07,0.81-0.18,1.26H332.38z M335.73,33.83c0.04-0.19,0.06-0.33,0.06-0.54c0-0.83-0.39-1.37-1.3-1.37
				c-1.07,0-1.7,0.95-1.95,1.91H335.73z"/>
			<path class="st4" d="M337.94,31.22h1.11l0.42-1.83h1.01l-0.42,1.83h1.35l-0.19,0.81h-1.35l-0.91,4
				c-0.12,0.53-0.02,0.76,0.54,0.76c0.32,0,0.57-0.07,0.71-0.09l-0.16,0.75c-0.29,0.11-0.71,0.15-0.93,0.15
				c-0.94,0-1.47-0.35-1.21-1.51l0.93-4.05h-1.09L337.94,31.22z"/>
			<path class="st4" d="M346.07,36.09c-0.1,0.46-0.25,1.13-0.29,1.42h-1c0.03-0.23,0.06-0.46,0.15-0.84
				c-0.34,0.5-0.88,0.95-1.98,0.95c-1.22,0-1.76-0.8-1.76-1.67c0-1.28,0.98-2.06,2.83-2.21c0.52-0.05,0.87-0.06,1.56-0.06l0.08-0.35
				c0.18-0.76,0.05-1.46-1.13-1.46c-0.97,0-1.27,0.52-1.46,1.05h-1.05c0.23-0.95,0.89-1.81,2.6-1.81c1.47,0,2.42,0.63,2.03,2.33
				L346.07,36.09z M345.42,34.42c-0.49-0.01-0.92,0.01-1.35,0.05c-1.02,0.09-1.8,0.48-1.8,1.36c0,0.55,0.32,0.98,1.05,0.98
				c1.34,0,1.79-1.06,2.02-2.09L345.42,34.42z"/>
		</g>
	</g>
</g>
</svg>
