<?xml version="1.0" encoding="utf-8"?>
<!-- Generator: Adobe Illustrator 24.1.2, SVG Export Plug-In . SVG Version: 6.00 Build 0)  -->
<svg version="1.1" id="Layer_1" xmlns="http://www.w3.org/2000/svg" xmlns:xlink="http://www.w3.org/1999/xlink" x="0px" y="0px"
	 viewBox="0 0 1385.41 275.34" style="enable-background:new 0 0 1385.41 275.34;" xml:space="preserve">
<style type="text/css">
	.st0{fill:#3517BA;}
	.st1{fill:#504EFF;}
	.st2{fill:#DB44FF;}
	.st3{fill:#FFFFFF;}
	.st4{fill:#00CD3C;}
</style>
<g>
	<rect class="st0" width="1385.41" height="275.34"/>
	<path class="st1" d="M935.94,275.34h449.47V1.08c-61.69,62.4-134.92,117.35-212.54,135.6
		C1038.04,168.39,968.66,232.62,935.94,275.34z"/>
	<path class="st1" d="M0,0v1.08c35.45,3.89,131.74,21.87,240.68,104.8c14.67,11.17,28.42,21.9,41.38,32.17
		C328.86,129.3,430.36,99.44,505,0H0z"/>
	<path class="st2" d="M0,1.08v274.26h470.1c-55.47-21.14-114.7-82.14-229.41-169.46C131.74,22.95,35.45,4.97,0,1.08z"/>
</g>
<g>
	<g>
		<path class="st3" d="M94.4,156.04h10.66v3.72H78.93v-3.72h10.66v-4.27h4.82V156.04z M103.08,169.5c0,2.24-1.03,3.97-3.09,5.19
			c-2.06,1.23-4.71,1.84-7.95,1.84c-3.21,0-5.87-0.61-7.95-1.84c-2.09-1.23-3.13-2.96-3.13-5.19v-0.6c0-2.24,1.04-3.97,3.13-5.19
			c2.09-1.23,4.74-1.84,7.95-1.84c3.25,0,5.9,0.61,7.95,1.84c2.06,1.23,3.09,2.96,3.09,5.19V169.5z M85.68,169.41
			c0,1.04,0.6,1.87,1.81,2.48s2.72,0.92,4.56,0.92c1.83,0,3.35-0.31,4.56-0.92s1.81-1.44,1.81-2.48v-0.37c0-1.04-0.6-1.88-1.81-2.51
			c-1.21-0.63-2.72-0.94-4.56-0.94c-1.83,0-3.35,0.31-4.56,0.94c-1.21,0.63-1.81,1.46-1.81,2.51V169.41z M114.61,194.92H85.92
			v-15.49h28.69V194.92z M109.78,183.34H90.74v7.58h19.04V183.34z M114.61,162.52h6.94v4.18h-6.94v10.07h-4.82v-24.5h4.82V162.52z"
			/>
		<path class="st3" d="M126.18,159.81v-4.18h9.31v3.77c0,4.84-0.53,9.7-1.59,14.57c-1.06,4.87-2.65,9.91-4.77,15.12l-4.1-1.61
			c2.02-4.93,3.55-9.71,4.58-14.34s1.54-8.9,1.54-12.82v-0.51H126.18z M150.67,169.18v-16.27h4.34v41.13h-4.34v-20.68h-5.45
			c-1.16,6.13-2.91,11.95-5.26,17.46l-4.1-1.61c2.03-4.81,3.58-9.79,4.68-14.94c1.09-5.15,1.64-9.8,1.64-13.97v-0.51h-5.01v-4.18
			h9.35v3.77c0,3.09-0.23,6.36-0.68,9.79H150.67z M159.54,194.92v-42.65h4.44v42.65H159.54z"/>
		<path class="st3" d="M197.63,155.72h10.66v3.68H182.1v-3.68h10.66v-3.95h4.87V155.72z M206.3,168.22c0,2.05-1.03,3.64-3.09,4.76
			c-2.06,1.12-4.71,1.68-7.95,1.68c-3.25,0-5.91-0.56-7.98-1.68c-2.07-1.12-3.11-2.7-3.11-4.76v-0.51c0-2.08,1.03-3.68,3.09-4.78
			c2.06-1.1,4.72-1.65,8-1.65c3.25,0,5.9,0.55,7.95,1.65c2.06,1.1,3.09,2.7,3.09,4.78V168.22z M188.9,168.13
			c0,0.89,0.6,1.59,1.81,2.11s2.72,0.78,4.56,0.78c1.83,0,3.35-0.26,4.56-0.78s1.81-1.23,1.81-2.11v-0.32c0-0.86-0.6-1.56-1.81-2.09
			s-2.72-0.8-4.56-0.8c-1.83,0-3.35,0.27-4.56,0.8s-1.81,1.23-1.81,2.09V168.13z M217.83,187.75h-23.86v3.68h25.46v3.72h-30.28
			v-10.94h23.86v-3.49H188.9v-3.63h28.93V187.75z M217.83,152.27v9.33h6.94v4.18h-6.94v8.64h-4.82v-22.15H217.83z"/>
		<path class="st3" d="M227.71,178.56h42.04v4.14h-18.61v12.68h-4.77v-12.68h-18.66V178.56z M247.67,164.82
			c-3.12,3.43-8.23,6.42-15.33,8.96l-1.93-4c5.56-2.05,9.64-4.26,12.25-6.62c2.6-2.36,3.91-4.89,3.91-7.58v-2.62h4.82v2.62
			c0,1.93-0.4,3.75-1.21,5.47l16.87,8.87l-2.31,3.86L247.67,164.82z"/>
		<path class="st3" d="M296.84,171.89v3.77h18.61v3.72h-42.04v-3.72h18.66v-3.77h-13.07v-11.17h26.03v-3.77h-26.23v-3.77h31.05
			v11.21h-26.03v3.77h26.95v3.72H296.84z M305.52,186.92h-26.95v-3.95h31.77v12.41h-4.82V186.92z"/>
		<path class="st3" d="M364.44,152.27h4.82v42.65h-4.82v-21.55h-11.96c-3.44,6.4-9.08,11.99-16.92,16.77l-2.84-3.63
			c3.31-1.99,6.23-4.18,8.75-6.57c2.52-2.39,4.56-4.89,6.1-7.49c-4.73,0.4-9.26,0.63-13.6,0.69H333l-0.24-4.18h0.87
			c2.35-0.03,5.06-0.11,8.15-0.25c3.09-0.14,5.71-0.31,7.86-0.53c1-2.7,1.49-5.32,1.49-7.86v-0.51h-17.45v-4.18H356v3.77
			c0,3.4-0.56,6.66-1.69,9.79h10.12V152.27z"/>
		<path class="st3" d="M393.07,161.65c0,3.28-0.4,6.34-1.21,9.19l12.68,14.84l-3.66,2.99l-10.85-12.78
			c-1.96,4.35-5.11,8.76-9.45,13.24l-3.47-3.03c3.83-3.92,6.66-7.8,8.51-11.63c1.85-3.83,2.77-8.1,2.77-12.82v-1.84h-9.5v-4.18
			h23.86v4.18h-9.69V161.65z M410.14,162.1v-9.84h4.82v42.65h-4.82v-18.93h-8.77v-4.09h8.77v-5.7h-8.77v-4.09H410.14z"/>
		<path class="st3" d="M423.98,159.81v-4.18h21.16v3.77c0,5.94-1.66,11.5-4.99,16.66c-3.33,5.16-8.06,9.75-14.2,13.76l-2.99-3.63
			c5.56-3.46,9.84-7.49,12.85-12.09s4.51-9.19,4.51-13.79v-0.51H423.98z M458.16,168.31h6.94v4.18h-6.94v22.43h-4.82v-42.65h4.82
			V168.31z"/>
		<path class="st3" d="M510.08,178.97h-42.04v-4.23h42.04V178.97z M478.46,165.92h26.28v4.23h-31.1v-16.96h4.82V165.92z
			 M505.65,194.92h-32.01v-12.36h4.82v8.09h27.19V194.92z"/>
		<path class="st3" d="M567.6,175.8h-42.04v-3.95h42.04V175.8z M563.16,194.92h-32.45v-14.84h31.77v4h-26.95v6.85h27.63V194.92z
			 M531.15,153.19h30.37V157h-25.55v6.99h26.03v3.91h-30.85V153.19z"/>
		<path class="st3" d="M613.3,178.97h-42.04v-4.23h42.04V178.97z M581.68,165.92h26.28v4.23h-31.1v-16.96h4.82V165.92z
			 M608.87,194.92h-32.01v-12.36h4.82v8.09h27.19V194.92z"/>
		<path class="st3" d="M641.7,162.06c0,3.19-0.31,6.17-0.92,8.96l10.08,15.03l-3.9,2.62l-7.91-11.81
			c-1.61,4.14-3.97,8.23-7.09,12.27l-3.76-2.8c3.05-3.86,5.31-7.71,6.77-11.56c1.46-3.84,2.19-8.08,2.19-12.71v-2.25h-7.33v-4.18
			h19.48v4.18h-7.62V162.06z M663.11,168.31v-16.04h4.68v42.65h-4.68v-22.43h-5.69v21.55h-4.58v-41.13h4.58v15.4H663.11z"/>
		<path class="st3" d="M698.83,188.02h-22.18v-32.63h22.18V188.02z M681.47,159.62v24.17h12.58v-24.17H681.47z M712.81,194.92h-4.77
			v-42.65h4.77V194.92z"/>
		<path class="st3" d="M722.21,192.21c-0.64-0.61-0.96-1.35-0.96-2.21c0-0.86,0.33-1.6,0.99-2.23c0.66-0.63,1.44-0.94,2.34-0.94
			c0.9,0,1.67,0.31,2.31,0.92c0.64,0.61,0.96,1.36,0.96,2.25c0,0.89-0.31,1.63-0.94,2.23c-0.63,0.6-1.41,0.9-2.34,0.9
			C723.64,193.13,722.85,192.82,722.21,192.21z"/>
		<path class="st3" d="M786.43,175.8h-42.04v-3.95h42.04V175.8z M761.89,168.08c-3.89,0-6.96-0.65-9.21-1.95
			c-2.25-1.3-3.38-3.22-3.38-5.77c0-2.51,1.12-4.41,3.38-5.7c2.25-1.29,5.32-1.93,9.21-1.93h7.09c3.89,0,6.95,0.64,9.18,1.93
			c2.23,1.29,3.35,3.19,3.35,5.7c0,2.54-1.12,4.47-3.35,5.77c-2.23,1.3-5.3,1.95-9.18,1.95H761.89z M781.32,194.92H749.6v-14.84
			h31.72V194.92z M768.11,164.31c2.76,0,4.89-0.34,6.39-1.01c1.49-0.67,2.24-1.64,2.24-2.9c0-1.26-0.74-2.21-2.22-2.87
			c-1.48-0.66-3.62-0.99-6.41-0.99h-5.35c-2.8,0-4.93,0.33-6.41,0.99c-1.48,0.66-2.22,1.62-2.22,2.87c0,1.26,0.75,2.22,2.24,2.9
			c1.49,0.68,3.62,1.01,6.39,1.01H768.11z M754.37,183.93v7.12h22.13v-7.12H754.37z"/>
		<path class="st3" d="M813.91,164.27c0,3.34-1.08,5.89-3.25,7.65c-2.17,1.76-4.97,2.64-8.41,2.64c-3.47,0-6.31-0.88-8.51-2.64
			c-2.2-1.76-3.3-4.31-3.3-7.65v-0.74c0-3.34,1.1-5.9,3.3-7.67c2.2-1.78,5.04-2.67,8.51-2.67c3.44,0,6.24,0.89,8.41,2.67
			c2.17,1.78,3.25,4.34,3.25,7.67V164.27z M795.25,164.17c0,2.05,0.64,3.62,1.93,4.71c1.28,1.09,2.97,1.63,5.06,1.63
			c2.03,0,3.68-0.54,4.97-1.63c1.28-1.09,1.93-2.66,1.93-4.71v-0.6c0-2.05-0.64-3.62-1.93-4.71c-1.29-1.09-2.94-1.63-4.97-1.63
			c-2.09,0-3.78,0.54-5.06,1.63c-1.29,1.09-1.93,2.66-1.93,4.71V164.17z M821.09,183.06h-24.3v-4.18h29.12v16.5h-4.82V183.06z
			 M825.91,161.6h6.94v4.23h-6.94v10.39h-4.82v-23.95h4.82V161.6z"/>
		<path class="st3" d="M870.41,156.87c0,4.44-1.75,8.2-5.25,11.28c-3.5,3.08-8.53,5.58-15.09,7.51l-1.83-4.09
			c5.21-1.5,9.32-3.38,12.34-5.65c3.02-2.27,4.66-4.67,4.92-7.22h-16.25v-4.18h21.16V156.87z M883.43,194.92h-28.64v-16.91h28.64
			V194.92z M878.61,182.05h-19.04v8.73h19.04V182.05z M883.43,161.19h6.94v4.18h-6.94v9.93h-4.82v-23.03h4.82V161.19z"/>
		<path class="st3" d="M905.37,166.75c-2.15,3.16-5.62,6.05-10.41,8.69l-2.56-3.68c3.92-2.21,6.81-4.55,8.68-7.03
			c1.86-2.48,2.8-5.24,2.8-8.27v-2.8h4.68v2.8c0,2.27-0.37,4.41-1.11,6.43l12.44,8.04l-2.6,3.59L905.37,166.75z M919.54,177.78
			c2.12,0,3.99,0.38,5.59,1.13c1.61,0.75,2.84,1.79,3.71,3.13s1.3,2.84,1.3,4.53c0,1.72-0.43,3.24-1.3,4.57
			c-0.87,1.33-2.11,2.37-3.71,3.12c-1.61,0.75-3.47,1.13-5.59,1.13h-9.45c-2.09,0-3.94-0.37-5.54-1.13
			c-1.61-0.75-2.85-1.79-3.71-3.12c-0.87-1.33-1.3-2.86-1.3-4.57c0-1.68,0.43-3.19,1.3-4.53c0.87-1.33,2.1-2.37,3.71-3.13
			c1.61-0.75,3.45-1.13,5.54-1.13H919.54z M918.77,191.24c2.12,0,3.74-0.43,4.87-1.29c1.12-0.86,1.69-1.99,1.69-3.4
			c0-1.41-0.56-2.54-1.69-3.4c-1.13-0.86-2.75-1.29-4.87-1.29h-7.86c-2.12,0-3.75,0.43-4.89,1.29c-1.14,0.86-1.71,1.99-1.71,3.4
			c0,1.41,0.57,2.54,1.71,3.4c1.14,0.86,2.77,1.29,4.89,1.29H918.77z M929.14,152.27v8.92h6.94v4.18h-6.94v10.16h-4.82v-23.25
			H929.14z"/>
		<path class="st3" d="M951.7,183.98c5.11-0.21,10.12-0.6,15.04-1.15l0.53,4.04c-3.25,0.46-6.84,0.81-10.78,1.06
			c-3.94,0.24-7.54,0.37-10.82,0.37h-7.09l-0.24-4.18h7.71h0.87v-15.26h4.77V183.98z M958.83,159.81h-17.6v-4.18h22.42v3.31
			c0,5.85-0.71,12.38-2.12,19.58l-4.73-0.69c0.61-3.16,1.1-6.33,1.47-9.51c0.37-3.19,0.55-5.84,0.55-7.95V159.81z M975.27,168.72
			h6.51v4.18h-6.51v22.01h-4.82v-42.65h4.82V168.72z"/>
		<path class="st3" d="M996.54,178.56h42.04v4.14h-18.61v12.68h-4.77v-12.68h-18.66V178.56z M1016.49,164.82
			c-3.12,3.43-8.23,6.42-15.33,8.96l-1.93-4c5.56-2.05,9.64-4.26,12.25-6.62c2.6-2.36,3.91-4.89,3.91-7.58v-2.62h4.82v2.62
			c0,1.93-0.4,3.75-1.21,5.47l16.87,8.87l-2.31,3.86L1016.49,164.82z"/>
		<path class="st3" d="M1051.88,183.8c2.44,0,5.15-0.11,8.12-0.34c2.97-0.23,5.86-0.56,8.65-0.99l0.58,4.09
			c-6.14,0.95-12.21,1.42-18.22,1.42h-7.71v-32.58h21.74v4.23h-16.87v24.17H1051.88z M1078.06,168.31h6.94v4.18h-6.94v22.43h-4.82
			v-42.65h4.82V168.31z"/>
		<path class="st3" d="M1129.98,175.57h-42.04v-3.49h42.04V175.57z M1126.03,195.15h-32.93v-10.2h26.95v-3.03h-27.19v-3.49h32.01
			v10.02h-26.95v3.12h28.11V195.15z M1125.31,169.32h-31.77v-9.84h26.03v-3.03h-26.23v-3.49h31.05v9.93h-26.03v2.99h26.95V169.32z"
			/>
		<path class="st3" d="M1168.89,168.13v3.95h18.61v3.95h-42.04v-3.95h18.66v-3.95h-13.07v-14.94h30.37V157h-25.55v7.22h26.03v3.91
			H1168.89z M1171.59,179.89c2.35,0,4.36,0.33,6.05,0.99c1.69,0.66,2.97,1.57,3.86,2.73c0.88,1.16,1.33,2.5,1.33,4
			c0,2.3-0.99,4.17-2.97,5.61s-4.73,2.16-8.27,2.16h-10.22c-3.54,0-6.29-0.72-8.27-2.16c-1.98-1.44-2.96-3.31-2.96-5.61
			c0-1.5,0.44-2.83,1.33-4c0.88-1.16,2.17-2.08,3.86-2.73c1.69-0.66,3.7-0.99,6.05-0.99H1171.59z M1170.67,191.38
			c2.47,0,4.32-0.34,5.55-1.01c1.22-0.67,1.83-1.61,1.83-2.8c0-1.16-0.61-2.08-1.83-2.73c-1.22-0.66-3.07-0.99-5.55-0.99h-8.34
			c-2.47,0-4.32,0.33-5.54,0.99s-1.83,1.57-1.83,2.73c0,1.19,0.61,2.13,1.83,2.8s3.07,1.01,5.54,1.01H1170.67z"/>
		<path class="st3" d="M1207.65,160.31c0,3.65-0.45,7.08-1.35,10.29l13.26,15.12l-3.62,2.94l-11.43-13.14
			c-2.15,4.75-5.5,9.28-10.03,13.6l-3.38-3.08c4.08-3.92,7.08-7.93,8.99-12.02c1.91-4.09,2.87-8.66,2.87-13.72v-5.56h4.68V160.31z
			 M1224.67,194.92v-42.65h4.82v42.65H1224.67z"/>
		<path class="st3" d="M1261.5,168.72v-15.81h4.58v41.13h-4.58V172.9h-5.06v2.16c0,4.87-0.85,8.47-2.56,10.8
			c-1.7,2.33-3.97,3.49-6.8,3.49c-2.86,0-5.15-1.17-6.87-3.49c-1.72-2.33-2.58-5.93-2.58-10.8v-6.48c0-4.87,0.86-8.47,2.58-10.8
			c1.72-2.33,4.01-3.49,6.87-3.49c2.83,0,5.09,1.16,6.8,3.49c1.7,2.33,2.56,5.93,2.56,10.8v0.14H1261.5z M1251.86,168.63
			c0-3.55-0.43-6.14-1.28-7.74c-0.85-1.61-2.03-2.41-3.54-2.41c-1.51,0-2.69,0.8-3.54,2.41c-0.85,1.61-1.28,4.19-1.28,7.74v6.39
			c0,3.52,0.43,6.1,1.3,7.72c0.87,1.62,2.04,2.44,3.52,2.44c1.48,0,2.65-0.81,3.52-2.44c0.87-1.62,1.3-4.2,1.3-7.72V168.63z
			 M1271.19,194.92v-42.65h4.72v42.65H1271.19z"/>
		<path class="st3" d="M1281.85,161.97c0.93-2.6,2.45-4.69,4.56-6.25c2.1-1.56,4.75-2.34,7.93-2.34c2.12,0,4.11,0.41,5.98,1.24
			c1.86,0.83,3.36,2.01,4.48,3.56c1.12,1.55,1.69,3.35,1.69,5.4c0,2.48-0.65,4.54-1.95,6.16c-1.3,1.62-3.21,3.06-5.71,4.32
			c-1.45,0.77-2.44,1.47-2.97,2.11c-0.53,0.64-0.81,1.47-0.84,2.48v2.25h-4.58l-0.05-2.62c0-1.87,0.4-3.34,1.21-4.41
			c0.8-1.07,2.27-2.13,4.39-3.17c1.99-1.01,3.43-2.05,4.32-3.1c0.88-1.06,1.33-2.4,1.33-4.02c0-1.78-0.68-3.22-2.05-4.32
			c-1.37-1.1-3.11-1.65-5.23-1.65c-2.12,0-3.8,0.5-5.04,1.49c-1.24,1-2.24,2.44-3.01,4.34L1281.85,161.97z M1290.43,192.23
			c-0.64-0.6-0.96-1.34-0.96-2.23c0-0.89,0.32-1.64,0.96-2.25c0.64-0.61,1.41-0.92,2.31-0.92c0.93,0,1.72,0.32,2.36,0.94
			c0.64,0.63,0.96,1.37,0.96,2.23c0,0.86-0.32,1.59-0.96,2.21c-0.64,0.61-1.43,0.92-2.36,0.92
			C1291.84,193.13,1291.07,192.83,1290.43,192.23z"/>
	</g>
	<g>
		<g>
			<path class="st3" d="M126.78,117.44c1.23-5.43,3.27-13.86,4.79-18.8h-0.23c-3.27,7.93-7.08,16.58-12.45,29.39h-13.04
				c0.58-12.64,0.88-21.29,1.11-29.61h-0.18c-0.82,4.55-1.87,12.42-3.45,19.08l-2.46,10.54h-15.2L94.39,89h24.32
				c-0.18,4.27-0.7,12.86-1.17,21.02h0.12c2.63-7.15,6.49-16.41,8.42-21.02h23.97l-8.71,39.04h-16.9L126.78,117.44z"/>
			<path class="st3" d="M174.49,89l-5.38,23.68c-1.11,4.77,1.46,5.77,3.51,5.77c3.98,0,5.15-2.5,5.85-5.77L183.85,89h17.13
				l-5.32,23.46c-2.4,10.87-7.37,16.58-24.62,16.58c-14.79,0-21.52-5.43-18.89-16.91l5.2-23.12H174.49z"/>
			<path class="st3" d="M215.77,116.06c0.12,1.66,1.29,3.6,5.15,3.6c2.1,0,3.74-0.61,3.74-2.33c0-1.33-0.35-2.44-6.37-3.83
				c-11.4-2.66-14.44-6.49-14.44-11.87c0-8.76,8.54-13.64,20.11-13.64c13.51,0,20.41,4.71,20.7,12.48h-15.5
				c-0.18-1.66-0.99-3.22-4.15-3.22c-1.7,0-3.1,0.89-3.1,2.33c0,1.5,1.58,2.33,5.61,3.22c11.81,2.66,15.73,6.49,15.73,12.48
				c0,8.93-9.12,13.75-22.28,13.75c-13.39,0-20.35-4.6-21.28-12.98H215.77z"/>
			<path class="st3" d="M271.73,89l-8.71,39.04h-17.19L254.54,89H271.73z"/>
			<path class="st3" d="M319.44,113.12c-2.69,9.81-10.29,15.91-25.26,15.91c-15.49,0-21.46-7.82-21.46-17.25
				c0-9.81,5.85-23.79,26.9-23.79c15.09,0,21.4,6.65,21.46,15.75h-16.72c0.29-3.77-0.82-6.32-4.56-6.32
				c-6.96,0-8.89,10.65-8.89,15.08c0,4.38,1.7,6.6,4.97,6.6c3.04,0,5.55-1.66,7.25-5.99H319.44z"/>
			<path class="st3" d="M341.54,128.03L339.96,89h17.07c-0.76,8.1-1.11,17.25-1.81,24.79h0.23c3.63-8.65,6.49-16.63,9.94-24.79
				h14.44c-0.18,8.1-0.18,15.08-0.58,24.51h0.23c3.33-9.98,6.49-18.35,8.77-24.51h16.61l-19.65,39.04H367.8
				c0-7.54,0.41-12.64,0.53-22.29h-0.23c-3.1,7.32-6.14,14.81-9.24,22.29H341.54z"/>
			<path class="st3" d="M413.52,122.16l-3.04,5.88h-17.6L415.22,89h22.69l6.08,39.04h-17.02l-0.53-5.88H413.52z M425.45,111.95
				c-0.29-3.1-0.64-9.04-0.88-12.7h-0.41c-1.34,3.55-3.8,9.04-5.5,12.7H425.45z"/>
			<path class="st3" d="M452.58,128.03L446.79,89h17.07l1.11,16.47c0.35,4.94,0.47,8.1,0.41,11.2h0.12
				c1.23-2.99,2.63-5.66,5.26-11.15L478.95,89h18.65l-23.56,39.04H452.58z"/>
			<path class="st3" d="M531.45,113.56h-19.53l-0.94,4.21h22.51l-4.21,10.26h-37.25L500.76,89h37.19l-2.28,10.26h-20.52l-0.88,4.05
				h19.53L531.45,113.56z"/>
		</g>
		<g>
			<path class="st4" d="M554.83,79.96h2.15l-1.68,7.62c0.83-1.15,2.06-2.18,4.23-2.18c2.48,0,3.99,1.71,3.99,4.51
				c0,3.44-1.79,8.92-6.85,8.92c-2.09,0-3.09-0.95-3.43-2.12c-0.1,0.46-0.35,1.45-0.49,1.89h-2.09c0.15-0.62,0.48-2.06,0.84-3.66
				L554.83,79.96z M561.28,90.25c0-2.12-0.99-3.09-2.56-3.09c-2.58,0-4.01,2.43-4.54,4.84c-0.55,2.51-0.38,5.1,2.45,5.1
				C559.89,97.1,561.28,92.8,561.28,90.25z"/>
			<path class="st4" d="M567.67,92.5c-0.1,0.41-0.16,0.92-0.16,1.45c0,1.85,0.76,3.19,2.75,3.19c2.21,0,2.93-1.45,3.42-2.29h2.17
				c-0.69,1.66-2.13,3.99-5.81,3.99c-3.35,0-4.69-2.11-4.69-4.94c0-3.52,2.05-8.51,6.93-8.51c3.19,0,4.53,2.04,4.53,4.5
				c0,0.78-0.14,1.67-0.38,2.61H567.67z M574.58,91c0.08-0.39,0.13-0.69,0.13-1.12c0-1.71-0.8-2.83-2.69-2.83
				c-2.21,0-3.5,1.96-4.01,3.94H574.58z"/>
			<path class="st4" d="M579.14,85.62h2.28l0.88-3.77h2.09l-0.87,3.77h2.79l-0.38,1.67h-2.79l-1.88,8.26
				c-0.24,1.08-0.04,1.56,1.12,1.56c0.65,0,1.17-0.14,1.47-0.19l-0.34,1.54c-0.6,0.23-1.47,0.3-1.92,0.3c-1.93,0-3.03-0.72-2.5-3.12
				l1.92-8.34h-2.25L579.14,85.62z"/>
			<path class="st4" d="M595.89,95.66c-0.21,0.95-0.51,2.32-0.6,2.93h-2.07c0.06-0.48,0.13-0.94,0.31-1.72
				c-0.7,1.03-1.82,1.95-4.08,1.95c-2.51,0-3.62-1.65-3.62-3.43c0-2.64,2.02-4.25,5.84-4.56c1.07-0.09,1.8-0.13,3.21-0.13l0.17-0.72
				c0.37-1.57,0.11-3.01-2.33-3.01c-2,0-2.62,1.08-3,2.16h-2.16c0.48-1.95,1.83-3.73,5.36-3.73c3.04,0,4.99,1.29,4.2,4.81
				L595.89,95.66z M594.55,92.22c-1-0.02-1.9,0.02-2.78,0.1c-2.11,0.19-3.71,0.99-3.71,2.81c0,1.14,0.66,2.02,2.17,2.02
				c2.76,0,3.7-2.19,4.17-4.3L594.55,92.22z"/>
		</g>
	</g>
</g>
</svg>
