<?xml version="1.0" encoding="utf-8"?>
<!-- Generator: Adobe Illustrator 24.1.2, SVG Export Plug-In . SVG Version: 6.00 Build 0)  -->
<svg version="1.1" id="Layer_1" xmlns="http://www.w3.org/2000/svg" xmlns:xlink="http://www.w3.org/1999/xlink" x="0px" y="0px"
	 viewBox="0 0 737 193" style="enable-background:new 0 0 737 193;" xml:space="preserve">
<style type="text/css">
	.st0{fill-rule:evenodd;clip-rule:evenodd;fill:#00CD3C;}
</style>
<g>
	<path class="st0" d="M414.16,172.69c0,11.25-8.35,20.38-18.65,20.38l0,0c-10.3,0-18.65-9.13-18.65-20.38V23.8
		c0-11.25,8.35-20.38,18.65-20.38l0,0c10.3,0,18.65,9.13,18.65,20.38V172.69z"/>
	<path class="st0" d="M0.11,30.29v143.18c0,10.82,8.77,19.6,19.6,19.6s19.6-8.78,19.6-19.6V84.18L70.21,145
		c3.3,6.49,8.45,12.4,15.72,14.34c7.98,2.13,17.58-0.29,23.49-6.09c3.21-3.15,5.31-7,7.12-11c2.31-5.11,5.02-10.07,7.55-15.07
		c3.2-6.29,6.26-12.65,9.46-18.94c2.83-5.57,5.63-11.15,8.4-16.74c1.36-2.75,2.82-5.45,4.19-8.34v90.31c0,10.82,8.77,19.6,19.6,19.6
		s19.6-8.78,19.6-19.6c0-1.21,0-2.42,0-3.63c0-3.29,0-6.59,0-9.88c0-4.89,0-9.78,0-14.67c0-5.99,0.01-11.99,0-17.98
		c-0.01-6.6,0.01-13.21,0.01-19.81c-0.01-6.74,0-13.48,0-20.22c0-6.41-0.02-12.83-0.01-19.24c0.01-5.6-0.03-11.21-0.01-16.81
		c0.02-4.29,0-8.58-0.02-12.88c0-2.64,0.1-5.25-0.05-7.89c-0.3-5.4-0.34-11.48-3.06-16.35c-3.61-6.48-10.64-11.8-18.25-11.89
		c-7.79-0.09-16.02,2.89-20.26,9.64c-1.15,1.82-2.68,3.53-3.65,5.46l-46.96,93.68c0,0-50.37-99.14-50.37-99.15
		c-2.37-4.74-7.21-7.95-12.14-9.53c-2.59-0.83-5.28-1.42-8.01-1.42c-12.4,0-22.44,10.54-22.44,23.55"/>
	<circle class="st0" cx="570.3" cy="25.23" r="25.6"/>
	<path class="st0" d="M515.15,56.36c-37.97,0-68.75,30.78-68.75,68.75s30.78,68.75,68.75,68.75c37.97,0,68.75-30.78,68.75-68.75
		S553.12,56.36,515.15,56.36z M515.15,158.77c-16.85,0-30.5-15.07-30.5-33.66s13.66-33.66,30.5-33.66c16.85,0,30.5,15.07,30.5,33.66
		S531.99,158.77,515.15,158.77z"/>
	<path class="st0" d="M316.08,147.14c-0.06,0.02-0.13,0.04-0.2,0.06c-3.18,1.04-5.23,3.66-7.83,5.6
		c-14.68,10.89-38.29,8.82-48.04-7.78c-0.46-0.79-4.02-10.32-3.78-10.32c0.21,0,74.8,0,74.8,0c3.09-0.73,6.04-2.48,8.2-4.78
		c8.89-9.47,5.5-25.04,1.3-35.86c-5.69-14.67-16.57-25.12-30.57-31.84c-5.04-2.42-11.05-3.98-16.55-4.86
		c-18.9-3.04-39.66,3.25-53.68,16.27c-7.7,7.15-13.89,16.7-17.56,26.53c-9.34,25-3.68,53.61,13.61,73.53
		c20.31,23.39,65.26,25.79,90.01,9.21c4.17-2.8,8.67-5.69,11.32-10.08c6.46-10.67,0.52-23.59-11.84-25.76
		C322.3,146.53,319.04,146.22,316.08,147.14z M259.32,105.15c4.2-12.89,17.95-17.35,30.18-14.22c8.87,2.27,15.69,9.7,15.94,19
		h-46.99C258.35,109.94,259.17,105.61,259.32,105.15z"/>
	<path class="st0" d="M737.09,115.52c0.19-5.9-0.41-12.01-1.84-17.93c-2.83-11.69-8.94-22.61-18.77-29.59
		c-3.75-2.66-8.33-5.07-12.74-6.41c-4.67-1.42-9.77-2.38-14.64-2.7c-10.81-0.72-21.56,0.69-30.34,7.52
		c-0.98,0.76-5.8,4.84-5.42,6.12c-1.81-1.02-1.89-3.08-3.06-4.66c-1.1-1.48-2.59-2.9-4.08-3.98c-3.21-2.32-7.13-3.59-11.09-3.59
		c-10.47,0-18.96,8.49-18.96,18.96v95.45c0,10.47,8.49,18.96,18.96,18.96c9.75,0,17.69-7.39,18.75-16.86V115.2
		c0-12.51,10.14-22.65,22.65-22.65c7.51,0,14.1,3.69,18.23,9.31c0.06,0.09,0.14,0.16,0.2,0.25c0.65,0.91,1.19,1.9,1.7,2.91
		c0.26,0.49,0.61,0.92,0.83,1.43c0.39,0.88,0.66,1.94,0.85,3c0.48,1.85,0.82,3.74,0.82,5.74v61.59c1.04,9.49,8.99,16.91,18.76,16.91
		c10.47,0,18.96-8.49,18.96-18.96l0.24-58.16L737.09,115.52z"/>
</g>
</svg>
