<?xml version="1.0" encoding="utf-8"?>
<!-- Generator: Adobe Illustrator 24.1.2, SVG Export Plug-In . SVG Version: 6.00 Build 0)  -->
<svg version="1.1" id="Layer_1" xmlns="http://www.w3.org/2000/svg" xmlns:xlink="http://www.w3.org/1999/xlink" x="0px" y="0px"
	 viewBox="0 0 2402.07 195.41" style="enable-background:new 0 0 2402.07 195.41;" xml:space="preserve">
<style type="text/css">
	.st0{fill:#3517BA;}
	.st1{fill:#504EFF;}
	.st2{fill:#FFFFFF;}
	.st3{fill:#00CD3C;}
	.st4{fill:#DB44FF;}
</style>
<path class="st0" d="M91.31-48.29C-20.22,57.16-171.87,88.83-241.79,98.11c132.1,74.33,208.67,126.03,280.96,145.58h2112.35
	c56.36-44.98,175.91-112.6,408.22-145.99c133.74-19.22,259.91-77.07,366.2-142.77v-3.22H91.31z"/>
<path class="st1" d="M0,0v0.77c35.45,2.76,131.74,15.52,240.68,74.38c14.67,7.92,28.42,15.54,41.38,22.83
	C328.86,91.76,430.36,70.57,505,0H0z"/>
<g>
	<path class="st2" d="M450.62,110.78c1.23-5.43,3.27-13.86,4.79-18.8h-0.23c-3.27,7.93-7.08,16.58-12.45,29.39h-13.04
		c0.58-12.64,0.88-21.29,1.11-29.61h-0.18c-0.82,4.55-1.87,12.42-3.45,19.08l-2.46,10.54h-15.2l8.71-39.04h24.32
		c-0.18,4.27-0.7,12.86-1.17,21.02h0.12c2.63-7.15,6.49-16.41,8.42-21.02h23.97l-8.71,39.04h-16.9L450.62,110.78z"/>
	<path class="st2" d="M498.33,82.33l-5.38,23.68c-1.11,4.77,1.46,5.77,3.51,5.77c3.98,0,5.15-2.5,5.85-5.77l5.38-23.68h17.13
		l-5.32,23.46c-2.4,10.87-7.37,16.58-24.62,16.58c-14.79,0-21.52-5.43-18.89-16.91l5.2-23.12H498.33z"/>
	<path class="st2" d="M539.61,109.39c0.12,1.66,1.29,3.6,5.15,3.6c2.1,0,3.74-0.61,3.74-2.33c0-1.33-0.35-2.44-6.37-3.83
		c-11.4-2.66-14.44-6.49-14.44-11.87c0-8.76,8.54-13.64,20.11-13.64c13.51,0,20.41,4.71,20.7,12.48H553
		c-0.18-1.66-0.99-3.22-4.15-3.22c-1.7,0-3.1,0.89-3.1,2.33c0,1.5,1.58,2.33,5.61,3.22c11.81,2.66,15.73,6.49,15.73,12.48
		c0,8.93-9.12,13.75-22.28,13.75c-13.39,0-20.35-4.6-21.28-12.98H539.61z"/>
	<path class="st2" d="M595.57,82.33l-8.71,39.04h-17.19l8.71-39.04H595.57z"/>
	<path class="st2" d="M643.28,106.45c-2.69,9.81-10.29,15.91-25.26,15.91c-15.49,0-21.46-7.82-21.46-17.25
		c0-9.81,5.85-23.79,26.9-23.79c15.09,0,21.4,6.65,21.46,15.75H628.2c0.29-3.77-0.82-6.32-4.56-6.32c-6.96,0-8.89,10.65-8.89,15.08
		c0,4.38,1.7,6.6,4.97,6.6c3.04,0,5.55-1.66,7.25-5.99H643.28z"/>
	<path class="st2" d="M665.38,121.37l-1.58-39.04h17.07c-0.76,8.1-1.11,17.25-1.81,24.79h0.23c3.63-8.65,6.49-16.63,9.94-24.79
		h14.44c-0.18,8.1-0.18,15.08-0.58,24.51h0.23c3.33-9.98,6.49-18.35,8.77-24.51h16.61l-19.65,39.04h-17.42
		c0-7.54,0.41-12.64,0.53-22.29h-0.23c-3.1,7.32-6.14,14.81-9.24,22.29H665.38z"/>
	<path class="st2" d="M737.36,115.49l-3.04,5.88h-17.6l22.34-39.04h22.69l6.08,39.04h-17.02l-0.53-5.88H737.36z M749.29,105.29
		c-0.29-3.1-0.64-9.04-0.88-12.7H748c-1.34,3.55-3.8,9.04-5.5,12.7H749.29z"/>
	<path class="st2" d="M776.42,121.37l-5.79-39.04h17.07l1.11,16.47c0.35,4.94,0.47,8.1,0.41,11.2h0.12
		c1.23-2.99,2.63-5.66,5.26-11.15l8.19-16.52h18.65l-23.56,39.04H776.42z"/>
	<path class="st2" d="M855.29,106.89h-19.53l-0.94,4.21h22.51l-4.21,10.26h-37.25l8.71-39.04h37.19l-2.28,10.26h-20.52l-0.88,4.05
		h19.53L855.29,106.89z"/>
</g>
<g>
	<path class="st2" d="M981.34,84.3h8.91v3.11H968.4V84.3h8.91v-3.57h4.03V84.3z M988.6,95.55c0,1.87-0.86,3.32-2.58,4.34
		c-1.72,1.03-3.94,1.54-6.65,1.54c-2.69,0-4.9-0.51-6.65-1.54c-1.75-1.02-2.62-2.47-2.62-4.34v-0.5c0-1.87,0.87-3.32,2.62-4.34
		c1.75-1.02,3.96-1.54,6.65-1.54c2.71,0,4.93,0.51,6.65,1.54c1.72,1.03,2.58,2.47,2.58,4.34V95.55z M974.05,95.48
		c0,0.87,0.5,1.56,1.51,2.08s2.28,0.77,3.81,0.77c1.53,0,2.8-0.26,3.81-0.77s1.51-1.2,1.51-2.08v-0.31c0-0.87-0.5-1.57-1.51-2.09
		c-1.01-0.52-2.28-0.79-3.81-0.79c-1.53,0-2.8,0.26-3.81,0.79c-1.01,0.53-1.51,1.22-1.51,2.09V95.48z M998.23,116.8h-23.99v-12.95
		h23.99V116.8z M994.2,107.12h-15.92v6.34h15.92V107.12z M998.23,89.71h5.8v3.5h-5.8v8.42h-4.03V81.14h4.03V89.71z"/>
	<path class="st2" d="M1007.91,87.45v-3.5h7.78v3.15c0,4.05-0.44,8.11-1.33,12.18s-2.22,8.29-3.99,12.64l-3.43-1.34
		c1.69-4.12,2.97-8.12,3.83-11.99s1.29-7.44,1.29-10.72v-0.42H1007.91z M1028.39,95.29v-13.6h3.63v34.39h-3.63V98.78h-4.55
		c-0.97,5.12-2.43,9.99-4.39,14.6l-3.43-1.35c1.69-4.02,3-8.18,3.91-12.49c0.91-4.3,1.37-8.2,1.37-11.68v-0.42h-4.19v-3.5h7.82v3.15
		c0,2.59-0.19,5.32-0.56,8.18H1028.39z M1035.8,116.8V81.14h3.71v35.66H1035.8z"/>
	<path class="st2" d="M1067.65,84.03h8.91v3.07h-21.89v-3.07h8.91v-3.31h4.07V84.03z M1074.91,94.48c0,1.72-0.86,3.04-2.58,3.98
		c-1.72,0.94-3.94,1.4-6.65,1.4s-4.94-0.47-6.67-1.4c-1.73-0.93-2.6-2.26-2.6-3.98v-0.42c0-1.74,0.86-3.07,2.58-4
		c1.72-0.92,3.95-1.38,6.69-1.38c2.71,0,4.93,0.46,6.65,1.38c1.72,0.92,2.58,2.25,2.58,4V94.48z M1060.35,94.4
		c0,0.74,0.5,1.33,1.51,1.77s2.28,0.65,3.81,0.65c1.53,0,2.8-0.22,3.81-0.65s1.51-1.02,1.51-1.77v-0.27c0-0.72-0.5-1.3-1.51-1.75
		s-2.28-0.67-3.81-0.67c-1.53,0-2.8,0.22-3.81,0.67s-1.51,1.03-1.51,1.75V94.4z M1084.54,110.81h-19.95v3.07h21.28V117h-25.32v-9.15
		h19.95v-2.92h-20.16v-3.04h24.19V110.81z M1084.54,81.14v7.8h5.8v3.5h-5.8v7.22h-4.03V81.14H1084.54z"/>
	<path class="st2" d="M1092.81,103.12h35.15v3.46h-15.56v10.61h-3.99v-10.61h-15.6V103.12z M1109.49,91.63
		c-2.61,2.87-6.88,5.37-12.82,7.49l-1.61-3.34c4.65-1.72,8.06-3.56,10.24-5.53c2.18-1.97,3.27-4.09,3.27-6.34v-2.19h4.03v2.19
		c0,1.61-0.34,3.14-1.01,4.57l14.11,7.42l-1.93,3.23L1109.49,91.63z"/>
	<path class="st2" d="M1150.61,97.55v3.15h15.56v3.11h-35.15v-3.11h15.6v-3.15h-10.92v-9.34h21.77v-3.15h-21.93v-3.15h25.96v9.38
		h-21.77v3.15h22.53v3.11H1150.61z M1157.87,110.12h-22.53v-3.3h26.57v10.38h-4.03V110.12z"/>
	<path class="st2" d="M1207.13,81.14h4.03v35.66h-4.03V98.78h-10c-2.88,5.35-7.59,10.03-14.15,14.03l-2.38-3.04
		c2.77-1.67,5.21-3.5,7.32-5.5c2.11-2,3.81-4.09,5.1-6.26c-3.95,0.33-7.74,0.53-11.37,0.58h-0.81l-0.2-3.5h0.73
		c1.96-0.03,4.23-0.1,6.81-0.21s4.77-0.26,6.57-0.44c0.83-2.25,1.25-4.44,1.25-6.57v-0.42h-14.59v-3.5h18.67v3.15
		c0,2.84-0.47,5.57-1.41,8.18h8.46V81.14z"/>
	<path class="st2" d="M1231.07,88.98c0,2.74-0.34,5.3-1.01,7.69l10.6,12.41l-3.06,2.5l-9.07-10.68c-1.64,3.64-4.27,7.33-7.9,11.07
		l-2.9-2.54c3.2-3.28,5.57-6.52,7.12-9.72c1.54-3.2,2.32-6.78,2.32-10.72v-1.54h-7.94v-3.5h19.95v3.5h-8.1V88.98z M1245.34,89.37
		v-8.22h4.03v35.66h-4.03v-15.83h-7.34v-3.42h7.34v-4.77h-7.34v-3.42H1245.34z"/>
	<path class="st2" d="M1256.91,87.45v-3.5h17.7v3.15c0,4.97-1.39,9.61-4.17,13.93s-6.74,8.15-11.87,11.51l-2.5-3.04
		c4.65-2.89,8.23-6.26,10.74-10.11s3.77-7.69,3.77-11.53v-0.42H1256.91z M1285.49,94.55h5.8v3.5h-5.8v18.75h-4.03V81.14h4.03V94.55z
		"/>
	<path class="st2" d="M1328.91,103.47h-35.15v-3.54h35.15V103.47z M1302.46,92.56h21.97v3.54h-26V81.91h4.03V92.56z M1325.2,116.8
		h-26.77v-10.34h4.03v6.76h22.74V116.8z"/>
	<path class="st2" d="M1377,100.82h-35.15v-3.3H1377V100.82z M1373.29,116.8h-27.13v-12.41h26.57v3.34h-22.53v5.73h23.1V116.8z
		 M1346.52,81.91h25.4v3.19h-21.37v5.84h21.77v3.27h-25.8V81.91z"/>
	<path class="st2" d="M1415.21,103.47h-35.15v-3.54h35.15V103.47z M1388.77,92.56h21.97v3.54h-26V81.91h4.03V92.56z M1411.51,116.8
		h-26.77v-10.34h4.03v6.76h22.74V116.8z"/>
	<path class="st2" d="M1438.96,89.33c0,2.66-0.26,5.16-0.77,7.49l8.42,12.57l-3.26,2.19l-6.61-9.88c-1.34,3.46-3.32,6.88-5.93,10.26
		l-3.14-2.34c2.55-3.23,4.44-6.45,5.66-9.66c1.22-3.21,1.83-6.76,1.83-10.63v-1.88h-6.13v-3.5h16.29v3.5h-6.37V89.33z
		 M1456.86,94.55V81.14h3.91v35.66h-3.91V98.05h-4.76v18.02h-3.83V81.68h3.83v12.87H1456.86z"/>
	<path class="st2" d="M1486.73,111.04h-18.54V83.76h18.54V111.04z M1472.21,87.29v20.21h10.52V87.29H1472.21z M1498.42,116.8h-3.99
		V81.14h3.99V116.8z"/>
	<path class="st2" d="M1506.28,114.54c-0.54-0.51-0.81-1.13-0.81-1.84c0-0.72,0.28-1.34,0.83-1.86s1.2-0.79,1.96-0.79
		c0.75,0,1.4,0.26,1.93,0.77c0.54,0.51,0.81,1.14,0.81,1.88s-0.26,1.36-0.79,1.86c-0.52,0.5-1.18,0.75-1.96,0.75
		C1507.47,115.31,1506.81,115.05,1506.28,114.54z"/>
	<path class="st2" d="M1559.97,100.82h-35.15v-3.3h35.15V100.82z M1539.45,94.36c-3.25,0-5.82-0.54-7.7-1.63
		c-1.88-1.09-2.82-2.7-2.82-4.82c0-2.1,0.94-3.69,2.82-4.77c1.88-1.08,4.45-1.61,7.7-1.61h5.93c3.25,0,5.81,0.54,7.68,1.61
		c1.87,1.08,2.8,2.67,2.8,4.77c0,2.13-0.93,3.73-2.8,4.82c-1.87,1.09-4.43,1.63-7.68,1.63H1539.45z M1555.7,116.8h-26.52v-12.41
		h26.52V116.8z M1544.65,91.21c2.31,0,4.09-0.28,5.34-0.85c1.25-0.56,1.88-1.37,1.88-2.42c0-1.05-0.62-1.85-1.85-2.4
		c-1.24-0.55-3.02-0.83-5.36-0.83h-4.47c-2.34,0-4.13,0.28-5.36,0.83c-1.24,0.55-1.85,1.35-1.85,2.4c0,1.05,0.63,1.86,1.87,2.42
		c1.25,0.56,3.03,0.85,5.34,0.85H1544.65z M1533.16,107.62v5.96h18.5v-5.96H1533.16z"/>
	<path class="st2" d="M1582.95,91.17c0,2.79-0.91,4.92-2.72,6.4c-1.81,1.47-4.16,2.21-7.03,2.21c-2.9,0-5.27-0.74-7.12-2.21
		c-1.84-1.47-2.76-3.61-2.76-6.4v-0.62c0-2.79,0.92-4.93,2.76-6.42c1.84-1.49,4.21-2.23,7.12-2.23c2.88,0,5.22,0.74,7.03,2.23
		c1.81,1.49,2.72,3.63,2.72,6.42V91.17z M1567.35,91.1c0,1.72,0.54,3.03,1.61,3.94c1.07,0.91,2.49,1.36,4.23,1.36
		c1.69,0,3.08-0.45,4.15-1.36c1.07-0.91,1.61-2.22,1.61-3.94v-0.5c0-1.72-0.54-3.03-1.61-3.94c-1.08-0.91-2.46-1.36-4.15-1.36
		c-1.75,0-3.16,0.46-4.23,1.36c-1.08,0.91-1.61,2.22-1.61,3.94V91.1z M1588.95,106.89h-20.32v-3.5h24.35v13.79h-4.03V106.89z
		 M1592.99,88.94h5.8v3.54h-5.8v8.69h-4.03V81.14h4.03V88.94z"/>
	<path class="st2" d="M1630.19,84.99c0,3.71-1.46,6.86-4.39,9.43c-2.93,2.57-7.13,4.67-12.62,6.28l-1.53-3.42
		c4.35-1.25,7.79-2.83,10.32-4.73c2.53-1.9,3.9-3.91,4.11-6.03h-13.58v-3.5h17.7V84.99z M1641.08,116.8h-23.95v-14.14h23.95V116.8z
		 M1637.05,106.05h-15.92v7.3h15.92V106.05z M1641.08,88.6h5.8v3.5h-5.8v8.3h-4.03V81.14h4.03V88.6z"/>
	<path class="st2" d="M1659.42,93.25c-1.8,2.64-4.7,5.06-8.71,7.26l-2.14-3.07c3.28-1.84,5.7-3.8,7.26-5.88s2.34-4.38,2.34-6.92
		V82.3h3.91v2.34c0,1.9-0.31,3.69-0.93,5.38l10.4,6.72l-2.18,3L1659.42,93.25z M1671.27,102.47c1.77,0,3.33,0.31,4.68,0.94
		c1.34,0.63,2.38,1.5,3.1,2.61s1.09,2.38,1.09,3.79c0,1.43-0.36,2.71-1.09,3.82c-0.73,1.11-1.76,1.98-3.1,2.61
		c-1.34,0.63-2.9,0.94-4.68,0.94h-7.9c-1.75,0-3.29-0.31-4.64-0.94c-1.34-0.63-2.38-1.5-3.1-2.61c-0.73-1.12-1.09-2.39-1.09-3.82
		c0-1.41,0.36-2.67,1.09-3.79s1.76-1.98,3.1-2.61c1.34-0.63,2.89-0.94,4.64-0.94H1671.27z M1670.63,113.73
		c1.77,0,3.13-0.36,4.07-1.08c0.94-0.72,1.41-1.67,1.41-2.84c0-1.18-0.47-2.13-1.41-2.84c-0.94-0.72-2.3-1.08-4.07-1.08h-6.57
		c-1.77,0-3.14,0.36-4.09,1.08c-0.96,0.72-1.43,1.67-1.43,2.84c0,1.18,0.48,2.13,1.43,2.84c0.95,0.72,2.32,1.08,4.09,1.08H1670.63z
		 M1679.29,81.14v7.46h5.8v3.5h-5.8v8.49h-4.03V81.14H1679.29z"/>
	<path class="st2" d="M1698.16,107.66c4.27-0.18,8.46-0.5,12.58-0.96l0.44,3.38c-2.71,0.38-5.72,0.68-9.01,0.88
		c-3.29,0.2-6.31,0.31-9.05,0.31h-5.93l-0.2-3.5h6.45h0.73V95.02h3.99V107.66z M1704.12,87.45h-14.71v-3.5h18.75v2.77
		c0,4.89-0.59,10.35-1.77,16.37l-3.95-0.58c0.51-2.64,0.92-5.29,1.23-7.96c0.31-2.66,0.46-4.88,0.46-6.65V87.45z M1717.87,94.9h5.44
		v3.5h-5.44v18.41h-4.03V81.14h4.03V94.9z"/>
	<path class="st2" d="M1735.65,103.12h35.15v3.46h-15.56v10.61h-3.99v-10.61h-15.6V103.12z M1752.34,91.63
		c-2.61,2.87-6.88,5.37-12.82,7.49l-1.61-3.34c4.65-1.72,8.06-3.56,10.24-5.53c2.18-1.97,3.27-4.09,3.27-6.34v-2.19h4.03v2.19
		c0,1.61-0.34,3.14-1.01,4.57l14.11,7.42l-1.93,3.23L1752.34,91.63z"/>
	<path class="st2" d="M1781.92,107.51c2.04,0,4.31-0.1,6.79-0.29c2.49-0.19,4.9-0.47,7.24-0.83l0.48,3.42
		c-5.13,0.79-10.21,1.19-15.24,1.19h-6.45V83.76h18.18v3.54h-14.11v20.21H1781.92z M1803.81,94.55h5.8v3.5h-5.8v18.75h-4.03V81.14
		h4.03V94.55z"/>
	<path class="st2" d="M1847.23,100.63h-35.15v-2.92h35.15V100.63z M1843.92,117h-27.53v-8.53h22.53v-2.54h-22.74v-2.92h26.77v8.38
		h-22.53V114h23.5V117z M1843.32,95.4h-26.57v-8.22h21.77v-2.54h-21.93v-2.92h25.96v8.3h-21.77v2.5h22.53V95.4z"/>
	<path class="st2" d="M1879.76,94.4v3.3h15.56v3.3h-35.15v-3.3h15.6v-3.3h-10.92V81.91h25.4v3.19h-21.37v6.03h21.77v3.27H1879.76z
		 M1882.02,104.24c1.96,0,3.65,0.28,5.06,0.83s2.49,1.31,3.23,2.29c0.74,0.97,1.11,2.09,1.11,3.34c0,1.92-0.83,3.48-2.48,4.69
		s-3.96,1.81-6.91,1.81h-8.55c-2.96,0-5.26-0.6-6.91-1.81c-1.65-1.2-2.48-2.77-2.48-4.69c0-1.25,0.37-2.37,1.11-3.34
		c0.74-0.97,1.81-1.74,3.22-2.29s3.1-0.83,5.06-0.83H1882.02z M1881.25,113.85c2.07,0,3.61-0.28,4.64-0.85
		c1.02-0.56,1.53-1.34,1.53-2.34c0-0.97-0.51-1.74-1.53-2.29c-1.02-0.55-2.57-0.83-4.64-0.83h-6.97c-2.07,0-3.61,0.28-4.64,0.83
		s-1.53,1.31-1.53,2.29c0,1,0.51,1.78,1.53,2.34s2.57,0.85,4.64,0.85H1881.25z"/>
	<path class="st2" d="M1912.17,87.87c0,3.05-0.38,5.92-1.13,8.61l11.09,12.64l-3.02,2.46l-9.55-10.99c-1.8,3.97-4.6,7.76-8.38,11.38
		l-2.82-2.58c3.41-3.28,5.92-6.63,7.52-10.05c1.6-3.42,2.4-7.24,2.4-11.47v-4.65h3.91V87.87z M1926.4,116.8V81.14h4.03v35.66H1926.4
		z"/>
	<path class="st2" d="M1957.2,94.9V81.68h3.83v34.39h-3.83V98.4h-4.23v1.81c0,4.07-0.71,7.08-2.14,9.03
		c-1.42,1.95-3.32,2.92-5.68,2.92c-2.39,0-4.31-0.97-5.75-2.92s-2.16-4.96-2.16-9.03v-5.42c0-4.07,0.72-7.08,2.16-9.03
		c1.44-1.95,3.35-2.92,5.75-2.92c2.36,0,4.26,0.97,5.68,2.92c1.42,1.95,2.14,4.96,2.14,9.03v0.12H1957.2z M1949.14,94.82
		c0-2.97-0.36-5.13-1.07-6.48c-0.71-1.34-1.7-2.02-2.96-2.02c-1.26,0-2.25,0.67-2.96,2.02c-0.71,1.35-1.07,3.5-1.07,6.48v5.34
		c0,2.95,0.36,5.1,1.09,6.46c0.73,1.36,1.71,2.04,2.94,2.04s2.22-0.68,2.94-2.04c0.73-1.36,1.09-3.51,1.09-6.46V94.82z
		 M1965.3,116.8V81.14h3.95v35.66H1965.3z"/>
	<path class="st2" d="M1974.21,89.25c0.78-2.18,2.05-3.92,3.81-5.23c1.76-1.31,3.97-1.96,6.63-1.96c1.77,0,3.44,0.35,5,1.04
		s2.81,1.68,3.75,2.98s1.41,2.8,1.41,4.51c0,2.08-0.54,3.79-1.63,5.15c-1.09,1.36-2.68,2.56-4.78,3.61
		c-1.21,0.64-2.04,1.23-2.48,1.77s-0.68,1.23-0.71,2.08v1.88h-3.83l-0.04-2.19c0-1.56,0.34-2.79,1.01-3.69
		c0.67-0.9,1.89-1.78,3.67-2.65c1.67-0.85,2.87-1.71,3.61-2.59c0.74-0.88,1.11-2,1.11-3.36c0-1.49-0.57-2.69-1.71-3.61
		c-1.14-0.92-2.6-1.38-4.37-1.38c-1.77,0-3.18,0.42-4.21,1.25c-1.04,0.83-1.87,2.04-2.52,3.63L1974.21,89.25z M1981.38,114.56
		c-0.54-0.5-0.81-1.12-0.81-1.86s0.27-1.37,0.81-1.88c0.54-0.51,1.18-0.77,1.93-0.77c0.78,0,1.44,0.26,1.98,0.79
		c0.54,0.52,0.81,1.15,0.81,1.86c0,0.72-0.27,1.33-0.81,1.84c-0.54,0.51-1.2,0.77-1.98,0.77
		C1982.57,115.31,1981.92,115.06,1981.38,114.56z"/>
</g>
<g>
	<path class="st3" d="M878.67,73.3h2.15l-1.68,7.62c0.83-1.15,2.06-2.18,4.23-2.18c2.48,0,3.99,1.71,3.99,4.51
		c0,3.44-1.79,8.92-6.85,8.92c-2.09,0-3.09-0.95-3.43-2.12c-0.1,0.46-0.35,1.45-0.49,1.89h-2.09c0.15-0.62,0.48-2.06,0.84-3.66
		L878.67,73.3z M885.12,83.59c0-2.12-0.99-3.09-2.56-3.09c-2.58,0-4.01,2.43-4.54,4.84c-0.55,2.51-0.38,5.1,2.45,5.1
		C883.73,90.43,885.12,86.13,885.12,83.59z"/>
	<path class="st3" d="M891.51,85.84c-0.1,0.41-0.16,0.92-0.16,1.45c0,1.85,0.76,3.19,2.75,3.19c2.21,0,2.93-1.45,3.42-2.29h2.17
		c-0.69,1.66-2.13,3.99-5.81,3.99c-3.35,0-4.69-2.11-4.69-4.94c0-3.52,2.05-8.51,6.93-8.51c3.19,0,4.53,2.04,4.53,4.5
		c0,0.78-0.14,1.67-0.38,2.61H891.51z M898.42,84.33c0.08-0.39,0.13-0.69,0.13-1.12c0-1.71-0.8-2.83-2.69-2.83
		c-2.21,0-3.5,1.96-4.01,3.94H898.42z"/>
	<path class="st3" d="M902.98,78.96h2.28l0.88-3.77h2.09l-0.87,3.77h2.79l-0.38,1.67h-2.79l-1.88,8.26
		c-0.24,1.08-0.04,1.56,1.12,1.56c0.65,0,1.17-0.14,1.47-0.19l-0.34,1.54c-0.6,0.23-1.47,0.3-1.92,0.3c-1.93,0-3.03-0.72-2.5-3.12
		l1.92-8.34h-2.25L902.98,78.96z"/>
	<path class="st3" d="M919.73,89c-0.21,0.95-0.51,2.32-0.6,2.93h-2.07c0.06-0.48,0.13-0.94,0.31-1.72c-0.7,1.03-1.82,1.95-4.08,1.95
		c-2.51,0-3.62-1.65-3.62-3.43c0-2.64,2.02-4.25,5.84-4.56c1.07-0.09,1.8-0.13,3.21-0.13l0.17-0.72c0.37-1.57,0.11-3.01-2.33-3.01
		c-2,0-2.62,1.08-3,2.16h-2.16c0.48-1.95,1.83-3.73,5.36-3.73c3.04,0,4.99,1.29,4.2,4.81L919.73,89z M918.39,85.55
		c-1-0.02-1.9,0.02-2.78,0.1c-2.11,0.19-3.71,0.99-3.71,2.81c0,1.14,0.66,2.02,2.17,2.02c2.76,0,3.7-2.19,4.17-4.3L918.39,85.55z"/>
</g>
<path class="st4" d="M0,0.77v194.64h470.1c-55.47-15-114.7-58.29-229.41-120.26C131.74,16.29,35.45,3.53,0,0.77z"/>
<path class="st1" d="M1883.79,195.41h518.28V2.15c-71.14,43.97-155.57,82.69-245.08,95.55
	C2001.52,120.05,1921.51,165.3,1883.79,195.41z"/>
</svg>
