<?xml version="1.0" encoding="utf-8"?>
<!-- Generator: Adobe Illustrator 24.1.2, SVG Export Plug-In . SVG Version: 6.00 Build 0)  -->
<svg version="1.1" id="Layer_1" xmlns="http://www.w3.org/2000/svg" xmlns:xlink="http://www.w3.org/1999/xlink" x="0px" y="0px"
	 viewBox="0 0 46.7 46.72" style="enable-background:new 0 0 46.7 46.72;" xml:space="preserve">
<style type="text/css">
	.st0{fill:#FFFFFF;}
</style>
<path class="st0" d="M46.7,21.54c0-0.89-0.25-1.24-1.09-1.5c-1.35-0.43-2.7-0.83-4.04-1.29c-0.27-0.1-0.55-0.4-0.67-0.67
	c-0.5-1.11-0.97-2.24-1.4-3.39c-0.11-0.28-0.12-0.69,0.01-0.95c0.61-1.28,1.29-2.52,1.94-3.78c0.41-0.81,0.35-1.18-0.3-1.83
	c-0.87-0.87-1.75-1.73-2.6-2.61c-0.54-0.55-1.1-0.64-1.78-0.27c-1.24,0.67-2.5,1.33-3.77,1.95c-0.25,0.12-0.64,0.14-0.9,0.05
	c-1.19-0.45-2.36-0.94-3.52-1.46c-0.25-0.11-0.51-0.39-0.6-0.65c-0.46-1.34-0.87-2.69-1.29-4.04c-0.22-0.72-0.65-1.1-1.45-1.08
	c-1.28,0.03-2.55,0.02-3.83,0c-0.76-0.01-1.18,0.35-1.39,1.05c-0.41,1.35-0.82,2.71-1.29,4.04c-0.1,0.28-0.38,0.57-0.65,0.69
	c-1.13,0.51-2.29,0.99-3.45,1.43c-0.26,0.1-0.65,0.11-0.89,0c-1.25-0.61-2.47-1.28-3.7-1.92C9.75,5.14,9.46,5.05,9.08,4.9
	C8.76,5.11,8.4,5.27,8.12,5.54c-0.87,0.83-1.71,1.7-2.56,2.55c-0.68,0.68-0.73,1.08-0.28,1.95c0.64,1.24,1.3,2.46,1.9,3.71
	C7.3,14,7.29,14.38,7.19,14.65c-0.44,1.14-0.95,2.25-1.38,3.4c-0.15,0.39-0.32,0.61-0.74,0.73c-1.36,0.39-2.7,0.85-4.05,1.25
	c-0.71,0.21-1.04,0.65-1.03,1.4c0.02,1.25,0,2.51,0.01,3.76c0,0.91,0.23,1.23,1.08,1.5c1.35,0.43,2.7,0.84,4.04,1.3
	c0.26,0.09,0.52,0.36,0.63,0.62c0.51,1.14,0.99,2.29,1.43,3.45c0.11,0.28,0.1,0.69-0.02,0.95c-0.61,1.25-1.28,2.47-1.92,3.71
	c-0.41,0.79-0.35,1.21,0.27,1.84c0.85,0.86,1.7,1.71,2.56,2.56c0.7,0.7,1.07,0.76,1.95,0.31c1.24-0.64,2.46-1.3,3.71-1.91
	c0.25-0.12,0.63-0.1,0.9,0c1.17,0.44,2.32,0.91,3.46,1.42c0.27,0.12,0.55,0.42,0.65,0.69c0.46,1.34,0.86,2.69,1.29,4.04
	c0.26,0.81,0.59,1.05,1.45,1.05c1.23,0,2.46,0,3.69,0c0.9,0,1.22-0.22,1.5-1.09c0.44-1.34,0.84-2.7,1.31-4.03
	c0.1-0.27,0.39-0.55,0.67-0.67c1.11-0.51,2.24-0.97,3.39-1.4c0.28-0.11,0.69-0.11,0.96,0.02c1.23,0.59,2.43,1.26,3.65,1.88
	c0.92,0.48,1.28,0.42,2.01-0.31c0.79-0.78,1.57-1.57,2.36-2.36c0.82-0.82,0.87-1.2,0.32-2.25c-0.62-1.17-1.25-2.33-1.82-3.52
	c-0.12-0.25-0.12-0.63-0.02-0.9c0.45-1.19,0.93-2.36,1.45-3.52c0.11-0.24,0.37-0.48,0.61-0.57c1.34-0.46,2.69-0.86,4.04-1.29
	c0.87-0.28,1.13-0.62,1.13-1.55C46.7,23.95,46.7,22.74,46.7,21.54z M33.58,23.36c0,5.66-4.58,10.24-10.24,10.24
	S13.1,29.01,13.1,23.36c0-5.66,4.58-10.24,10.24-10.24S33.58,17.7,33.58,23.36z"/>
</svg>
